<svg width="313" height="63" viewBox="0 0 313 63" fill="none" xmlns="http://www.w3.org/2000/svg">
<g filter="url(#filter0_d_139_5)">
<rect x="4" width="305" height="55" rx="10" fill="white" shape-rendering="crispEdges"/>
<path d="M108.159 24H106.045C105.92 23.392 105.702 22.858 105.389 22.3977C105.082 21.9375 104.707 21.5511 104.264 21.2386C103.827 20.9205 103.341 20.6818 102.807 20.5227C102.273 20.3636 101.716 20.2841 101.136 20.2841C100.08 20.2841 99.1222 20.5511 98.2642 21.0852C97.4119 21.6193 96.733 22.4062 96.2273 23.446C95.7273 24.4858 95.4773 25.7614 95.4773 27.2727C95.4773 28.7841 95.7273 30.0597 96.2273 31.0994C96.733 32.1392 97.4119 32.9261 98.2642 33.4602C99.1222 33.9943 100.08 34.2614 101.136 34.2614C101.716 34.2614 102.273 34.1818 102.807 34.0227C103.341 33.8636 103.827 33.6278 104.264 33.3153C104.707 32.9972 105.082 32.608 105.389 32.1477C105.702 31.6818 105.92 31.1477 106.045 30.5455H108.159C108 31.4375 107.71 32.2358 107.29 32.9403C106.869 33.6449 106.347 34.2443 105.722 34.7386C105.097 35.2273 104.395 35.5994 103.616 35.8551C102.844 36.1108 102.017 36.2386 101.136 36.2386C99.6477 36.2386 98.3239 35.875 97.1648 35.1477C96.0057 34.4205 95.0938 33.3864 94.429 32.0455C93.7642 30.7045 93.4318 29.1136 93.4318 27.2727C93.4318 25.4318 93.7642 23.8409 94.429 22.5C95.0938 21.1591 96.0057 20.125 97.1648 19.3977C98.3239 18.6705 99.6477 18.3068 101.136 18.3068C102.017 18.3068 102.844 18.4347 103.616 18.6903C104.395 18.946 105.097 19.321 105.722 19.8153C106.347 20.304 106.869 20.9006 107.29 21.6051C107.71 22.304 108 23.1023 108.159 24ZM116.62 36.2727C115.438 36.2727 114.401 35.9915 113.509 35.429C112.623 34.8665 111.93 34.0795 111.43 33.0682C110.935 32.0568 110.688 30.875 110.688 29.5227C110.688 28.1591 110.935 26.9687 111.43 25.9517C111.93 24.9347 112.623 24.1449 113.509 23.5824C114.401 23.0199 115.438 22.7386 116.62 22.7386C117.802 22.7386 118.836 23.0199 119.722 23.5824C120.614 24.1449 121.308 24.9347 121.802 25.9517C122.302 26.9687 122.552 28.1591 122.552 29.5227C122.552 30.875 122.302 32.0568 121.802 33.0682C121.308 34.0795 120.614 34.8665 119.722 35.429C118.836 35.9915 117.802 36.2727 116.62 36.2727ZM116.62 34.4659C117.518 34.4659 118.256 34.2358 118.836 33.7756C119.415 33.3153 119.844 32.7102 120.123 31.9602C120.401 31.2102 120.54 30.3977 120.54 29.5227C120.54 28.6477 120.401 27.8324 120.123 27.0767C119.844 26.321 119.415 25.7102 118.836 25.2443C118.256 24.7784 117.518 24.5455 116.62 24.5455C115.722 24.5455 114.984 24.7784 114.404 25.2443C113.825 25.7102 113.396 26.321 113.117 27.0767C112.839 27.8324 112.7 28.6477 112.7 29.5227C112.7 30.3977 112.839 31.2102 113.117 31.9602C113.396 32.7102 113.825 33.3153 114.404 33.7756C114.984 34.2358 115.722 34.4659 116.62 34.4659ZM127.634 28.125V36H125.622V22.9091H127.565V24.9545H127.736C128.043 24.2898 128.509 23.7557 129.134 23.3523C129.759 22.9432 130.565 22.7386 131.554 22.7386C132.44 22.7386 133.216 22.9205 133.881 23.2841C134.545 23.642 135.063 24.1875 135.432 24.9205C135.801 25.6477 135.986 26.5682 135.986 27.6818V36H133.974V27.8182C133.974 26.7898 133.707 25.9886 133.173 25.4148C132.639 24.8352 131.906 24.5455 130.974 24.5455C130.332 24.5455 129.759 24.6847 129.253 24.9631C128.753 25.2415 128.358 25.6477 128.068 26.1818C127.778 26.7159 127.634 27.3636 127.634 28.125ZM144.979 36.2727C143.798 36.2727 142.761 35.9915 141.869 35.429C140.982 34.8665 140.289 34.0795 139.789 33.0682C139.295 32.0568 139.048 30.875 139.048 29.5227C139.048 28.1591 139.295 26.9687 139.789 25.9517C140.289 24.9347 140.982 24.1449 141.869 23.5824C142.761 23.0199 143.798 22.7386 144.979 22.7386C146.161 22.7386 147.195 23.0199 148.082 23.5824C148.974 24.1449 149.667 24.9347 150.161 25.9517C150.661 26.9687 150.911 28.1591 150.911 29.5227C150.911 30.875 150.661 32.0568 150.161 33.0682C149.667 34.0795 148.974 34.8665 148.082 35.429C147.195 35.9915 146.161 36.2727 144.979 36.2727ZM144.979 34.4659C145.877 34.4659 146.616 34.2358 147.195 33.7756C147.775 33.3153 148.204 32.7102 148.482 31.9602C148.761 31.2102 148.9 30.3977 148.9 29.5227C148.9 28.6477 148.761 27.8324 148.482 27.0767C148.204 26.321 147.775 25.7102 147.195 25.2443C146.616 24.7784 145.877 24.5455 144.979 24.5455C144.082 24.5455 143.343 24.7784 142.763 25.2443C142.184 25.7102 141.755 26.321 141.477 27.0767C141.198 27.8324 141.059 28.6477 141.059 29.5227C141.059 30.3977 141.198 31.2102 141.477 31.9602C141.755 32.7102 142.184 33.3153 142.763 33.7756C143.343 34.2358 144.082 34.4659 144.979 34.4659ZM159.3 36.2727C158.072 36.2727 157.016 35.983 156.129 35.4034C155.243 34.8239 154.561 34.0256 154.084 33.0085C153.607 31.9915 153.368 30.8295 153.368 29.5227C153.368 28.1932 153.612 27.0199 154.101 26.0028C154.595 24.9801 155.283 24.1818 156.163 23.608C157.05 23.0284 158.084 22.7386 159.266 22.7386C160.186 22.7386 161.016 22.9091 161.754 23.25C162.493 23.5909 163.098 24.0682 163.57 24.6818C164.041 25.2955 164.334 26.0114 164.447 26.8295H162.436C162.283 26.233 161.942 25.7045 161.413 25.2443C160.891 24.7784 160.186 24.5455 159.3 24.5455C158.516 24.5455 157.828 24.75 157.237 25.1591C156.652 25.5625 156.195 26.1335 155.865 26.8722C155.541 27.6051 155.379 28.4659 155.379 29.4545C155.379 30.4659 155.538 31.3466 155.857 32.0966C156.18 32.8466 156.635 33.429 157.22 33.8438C157.811 34.2585 158.504 34.4659 159.3 34.4659C159.822 34.4659 160.297 34.375 160.723 34.1932C161.149 34.0114 161.51 33.75 161.805 33.4091C162.101 33.0682 162.311 32.6591 162.436 32.1818H164.447C164.334 32.9545 164.053 33.6506 163.604 34.2699C163.161 34.8835 162.572 35.3722 161.839 35.7358C161.112 36.0938 160.266 36.2727 159.3 36.2727ZM172.876 36.2727C171.615 36.2727 170.527 35.9943 169.612 35.4375C168.703 34.875 168.001 34.0909 167.507 33.0852C167.018 32.0739 166.774 30.8977 166.774 29.5568C166.774 28.2159 167.018 27.0341 167.507 26.0114C168.001 24.983 168.689 24.1818 169.57 23.608C170.456 23.0284 171.49 22.7386 172.672 22.7386C173.354 22.7386 174.027 22.8523 174.692 23.0795C175.357 23.3068 175.962 23.6761 176.507 24.1875C177.053 24.6932 177.487 25.3636 177.811 26.1989C178.135 27.0341 178.297 28.0625 178.297 29.2841V30.1364H168.206V28.3977H176.251C176.251 27.6591 176.104 27 175.808 26.4205C175.518 25.8409 175.104 25.3835 174.564 25.0483C174.03 24.7131 173.399 24.5455 172.672 24.5455C171.871 24.5455 171.178 24.7443 170.592 25.142C170.013 25.5341 169.567 26.0455 169.254 26.6761C168.942 27.3068 168.786 27.983 168.786 28.7045V29.8636C168.786 30.8523 168.956 31.6903 169.297 32.3778C169.643 33.0597 170.124 33.5795 170.737 33.9375C171.351 34.2898 172.064 34.4659 172.876 34.4659C173.405 34.4659 173.882 34.392 174.308 34.2443C174.74 34.0909 175.112 33.8636 175.425 33.5625C175.737 33.2557 175.979 32.875 176.149 32.4205L178.092 32.9659C177.888 33.625 177.544 34.2045 177.061 34.7045C176.578 35.1989 175.982 35.5852 175.271 35.8636C174.561 36.1364 173.763 36.2727 172.876 36.2727ZM183.368 28.125V36H181.357V22.9091H183.3V24.9545H183.47C183.777 24.2898 184.243 23.7557 184.868 23.3523C185.493 22.9432 186.3 22.7386 187.288 22.7386C188.175 22.7386 188.95 22.9205 189.615 23.2841C190.28 23.642 190.797 24.1875 191.166 24.9205C191.536 25.6477 191.72 26.5682 191.72 27.6818V36H189.709V27.8182C189.709 26.7898 189.442 25.9886 188.908 25.4148C188.374 24.8352 187.641 24.5455 186.709 24.5455C186.067 24.5455 185.493 24.6847 184.987 24.9631C184.487 25.2415 184.092 25.6477 183.803 26.1818C183.513 26.7159 183.368 27.3636 183.368 28.125ZM200.714 36.2727C199.532 36.2727 198.495 35.9915 197.603 35.429C196.717 34.8665 196.023 34.0795 195.523 33.0682C195.029 32.0568 194.782 30.875 194.782 29.5227C194.782 28.1591 195.029 26.9687 195.523 25.9517C196.023 24.9347 196.717 24.1449 197.603 23.5824C198.495 23.0199 199.532 22.7386 200.714 22.7386C201.896 22.7386 202.93 23.0199 203.816 23.5824C204.708 24.1449 205.401 24.9347 205.896 25.9517C206.396 26.9687 206.646 28.1591 206.646 29.5227C206.646 30.875 206.396 32.0568 205.896 33.0682C205.401 34.0795 204.708 34.8665 203.816 35.429C202.93 35.9915 201.896 36.2727 200.714 36.2727ZM200.714 34.4659C201.612 34.4659 202.35 34.2358 202.93 33.7756C203.509 33.3153 203.938 32.7102 204.217 31.9602C204.495 31.2102 204.634 30.3977 204.634 29.5227C204.634 28.6477 204.495 27.8324 204.217 27.0767C203.938 26.321 203.509 25.7102 202.93 25.2443C202.35 24.7784 201.612 24.5455 200.714 24.5455C199.816 24.5455 199.077 24.7784 198.498 25.2443C197.918 25.7102 197.489 26.321 197.211 27.0767C196.933 27.8324 196.793 28.6477 196.793 29.5227C196.793 30.3977 196.933 31.2102 197.211 31.9602C197.489 32.7102 197.918 33.3153 198.498 33.7756C199.077 34.2358 199.816 34.4659 200.714 34.4659ZM218.989 25.8409L217.182 26.3523C217.068 26.0511 216.901 25.7585 216.679 25.4744C216.463 25.1847 216.168 24.946 215.793 24.7585C215.418 24.571 214.938 24.4773 214.352 24.4773C213.551 24.4773 212.884 24.6619 212.349 25.0312C211.821 25.3949 211.557 25.858 211.557 26.4205C211.557 26.9205 211.739 27.3153 212.102 27.6051C212.466 27.8949 213.034 28.1364 213.807 28.3295L215.75 28.8068C216.92 29.0909 217.793 29.5256 218.366 30.1108C218.94 30.6903 219.227 31.4375 219.227 32.3523C219.227 33.1023 219.011 33.7727 218.58 34.3636C218.153 34.9545 217.557 35.4205 216.79 35.7614C216.023 36.1023 215.131 36.2727 214.114 36.2727C212.778 36.2727 211.673 35.983 210.798 35.4034C209.923 34.8239 209.369 33.9773 209.136 32.8636L211.045 32.3864C211.227 33.0909 211.571 33.6193 212.077 33.9716C212.588 34.3239 213.256 34.5 214.08 34.5C215.017 34.5 215.761 34.3011 216.312 33.9034C216.869 33.5 217.148 33.017 217.148 32.4545C217.148 32 216.989 31.6193 216.67 31.3125C216.352 31 215.864 30.767 215.205 30.6136L213.023 30.1023C211.824 29.8182 210.943 29.3778 210.381 28.7812C209.824 28.179 209.545 27.4261 209.545 26.5227C209.545 25.7841 209.753 25.1307 210.168 24.5625C210.588 23.9943 211.159 23.5483 211.881 23.2244C212.608 22.9006 213.432 22.7386 214.352 22.7386C215.648 22.7386 216.665 23.0227 217.403 23.5909C218.148 24.1591 218.676 24.9091 218.989 25.8409Z" fill="#AC7FC8"/>
<rect x="4.5" y="0.5" width="304" height="54" rx="9.5" stroke="#AC7FC8" shape-rendering="crispEdges"/>
</g>
<defs>
<filter id="filter0_d_139_5" x="0" y="0" width="313" height="63" filterUnits="userSpaceOnUse" color-interpolation-filters="sRGB">
<feFlood flood-opacity="0" result="BackgroundImageFix"/>
<feColorMatrix in="SourceAlpha" type="matrix" values="0 0 0 0 0 0 0 0 0 0 0 0 0 0 0 0 0 0 127 0" result="hardAlpha"/>
<feOffset dy="4"/>
<feGaussianBlur stdDeviation="2"/>
<feComposite in2="hardAlpha" operator="out"/>
<feColorMatrix type="matrix" values="0 0 0 0 0.863166 0 0 0 0 0.817361 0 0 0 0 0.891667 0 0 0 1 0"/>
<feBlend mode="normal" in2="BackgroundImageFix" result="effect1_dropShadow_139_5"/>
<feBlend mode="normal" in="SourceGraphic" in2="effect1_dropShadow_139_5" result="shape"/>
</filter>
</defs>
</svg>
