<svg width="337" height="87" viewBox="0 0 337 87" fill="none" xmlns="http://www.w3.org/2000/svg">
<g filter="url(#filter0_d_136_51)">
<rect x="16" y="12" width="305" height="55" rx="10" fill="#AC7FC8" shape-rendering="crispEdges"/>
<path d="M135.614 48V30.5455H146.148V32.4205H137.727V38.3182H145.602V40.1932H137.727V46.125H146.284V48H135.614ZM151.696 40.125V48H149.685V34.9091H151.628V36.9545H151.798C152.105 36.2898 152.571 35.7557 153.196 35.3523C153.821 34.9432 154.628 34.7386 155.616 34.7386C156.503 34.7386 157.278 34.9205 157.943 35.2841C158.608 35.642 159.125 36.1875 159.494 36.9205C159.864 37.6477 160.048 38.5682 160.048 39.6818V48H158.037V39.8182C158.037 38.7898 157.77 37.9886 157.236 37.4148C156.702 36.8352 155.969 36.5455 155.037 36.5455C154.395 36.5455 153.821 36.6847 153.315 36.9631C152.815 37.2415 152.42 37.6477 152.131 38.1818C151.841 38.7159 151.696 39.3636 151.696 40.125ZM173.96 34.9091L169.119 48H167.073L162.232 34.9091H164.414L168.028 45.3409H168.164L171.778 34.9091H173.96ZM176.614 48V34.9091H178.626V48H176.614ZM177.637 32.7273C177.245 32.7273 176.907 32.5938 176.623 32.3267C176.344 32.0597 176.205 31.7386 176.205 31.3636C176.205 30.9886 176.344 30.6676 176.623 30.4006C176.907 30.1335 177.245 30 177.637 30C178.029 30 178.364 30.1335 178.643 30.4006C178.927 30.6676 179.069 30.9886 179.069 31.3636C179.069 31.7386 178.927 32.0597 178.643 32.3267C178.364 32.5938 178.029 32.7273 177.637 32.7273ZM186.162 48.3068C185.332 48.3068 184.58 48.1506 183.903 47.8381C183.227 47.5199 182.69 47.0625 182.293 46.4659C181.895 45.8636 181.696 45.1364 181.696 44.2841C181.696 43.5341 181.844 42.9261 182.139 42.4602C182.435 41.9886 182.83 41.6193 183.324 41.3523C183.818 41.0852 184.364 40.8864 184.96 40.7557C185.563 40.6193 186.168 40.5114 186.776 40.4318C187.571 40.3295 188.216 40.2528 188.71 40.2017C189.21 40.1449 189.574 40.0511 189.801 39.9205C190.034 39.7898 190.151 39.5625 190.151 39.2386V39.1705C190.151 38.3295 189.92 37.6761 189.46 37.2102C189.006 36.7443 188.315 36.5114 187.389 36.5114C186.429 36.5114 185.676 36.7216 185.131 37.142C184.585 37.5625 184.202 38.0114 183.98 38.4886L182.071 37.8068C182.412 37.0114 182.866 36.392 183.435 35.9489C184.009 35.5 184.634 35.1875 185.31 35.0114C185.991 34.8295 186.662 34.7386 187.321 34.7386C187.741 34.7386 188.224 34.7898 188.77 34.892C189.321 34.9886 189.852 35.1903 190.364 35.4972C190.881 35.804 191.31 36.267 191.651 36.8864C191.991 37.5057 192.162 38.3352 192.162 39.375V48H190.151V46.2273H190.048C189.912 46.5114 189.685 46.8153 189.366 47.1392C189.048 47.4631 188.625 47.7386 188.097 47.9659C187.568 48.1932 186.923 48.3068 186.162 48.3068ZM186.469 46.5C187.264 46.5 187.935 46.3438 188.48 46.0312C189.031 45.7188 189.446 45.3153 189.724 44.821C190.009 44.3267 190.151 43.8068 190.151 43.2614V41.4205C190.065 41.5227 189.878 41.6165 189.588 41.7017C189.304 41.7812 188.974 41.8523 188.599 41.9148C188.23 41.9716 187.869 42.0227 187.517 42.0682C187.17 42.108 186.889 42.142 186.673 42.1705C186.151 42.2386 185.662 42.3494 185.207 42.5028C184.759 42.6506 184.395 42.875 184.116 43.1761C183.844 43.4716 183.707 43.875 183.707 44.3864C183.707 45.0852 183.966 45.6136 184.483 45.9716C185.006 46.3239 185.668 46.5 186.469 46.5ZM195.833 48V34.9091H197.776V36.8864H197.913C198.151 36.2386 198.583 35.7131 199.208 35.3097C199.833 34.9062 200.538 34.7045 201.322 34.7045C201.469 34.7045 201.654 34.7074 201.876 34.7131C202.097 34.7187 202.265 34.7273 202.379 34.7386V36.7841C202.31 36.767 202.154 36.7415 201.91 36.7074C201.671 36.6676 201.418 36.6477 201.151 36.6477C200.515 36.6477 199.947 36.7812 199.447 37.0483C198.952 37.3097 198.56 37.6733 198.271 38.1392C197.987 38.5994 197.844 39.125 197.844 39.7159V48H195.833Z" fill="#FAFAFA"/>
</g>
<defs>
<filter id="filter0_d_136_51" x="0" y="0" width="337" height="87" filterUnits="userSpaceOnUse" color-interpolation-filters="sRGB">
<feFlood flood-opacity="0" result="BackgroundImageFix"/>
<feColorMatrix in="SourceAlpha" type="matrix" values="0 0 0 0 0 0 0 0 0 0 0 0 0 0 0 0 0 0 127 0" result="hardAlpha"/>
<feMorphology radius="4" operator="dilate" in="SourceAlpha" result="effect1_dropShadow_136_51"/>
<feOffset dy="4"/>
<feGaussianBlur stdDeviation="6"/>
<feComposite in2="hardAlpha" operator="out"/>
<feColorMatrix type="matrix" values="0 0 0 0 0.67451 0 0 0 0 0.498039 0 0 0 0 0.784314 0 0 0 0.25 0"/>
<feBlend mode="normal" in2="BackgroundImageFix" result="effect1_dropShadow_136_51"/>
<feBlend mode="normal" in="SourceGraphic" in2="effect1_dropShadow_136_51" result="shape"/>
</filter>
</defs>
</svg>
