<svg width="337" height="87" viewBox="0 0 337 87" fill="none" xmlns="http://www.w3.org/2000/svg">
<g filter="url(#filter0_d_139_28)">
<rect x="16" y="12" width="305" height="55" rx="10" fill="#AC7FC8" shape-rendering="crispEdges"/>
<path d="M126.227 30.5455V48H124.114V30.5455H126.227ZM132.204 40.125V48H130.192V34.9091H132.136V36.9545H132.306C132.613 36.2898 133.079 35.7557 133.704 35.3523C134.329 34.9432 135.136 34.7386 136.124 34.7386C137.011 34.7386 137.786 34.9205 138.451 35.2841C139.116 35.642 139.633 36.1875 140.002 36.9205C140.371 37.6477 140.556 38.5682 140.556 39.6818V48H138.545V39.8182C138.545 38.7898 138.278 37.9886 137.744 37.4148C137.21 36.8352 136.477 36.5455 135.545 36.5455C134.903 36.5455 134.329 36.6847 133.823 36.9631C133.323 37.2415 132.928 37.6477 132.638 38.1818C132.349 38.7159 132.204 39.3636 132.204 40.125ZM149.516 53.1818C148.544 53.1818 147.709 53.0568 147.01 52.8068C146.311 52.5625 145.729 52.2386 145.263 51.8352C144.803 51.4375 144.436 51.0114 144.163 50.5568L145.766 49.4318C145.947 49.6705 146.178 49.9432 146.456 50.25C146.734 50.5625 147.115 50.8324 147.598 51.0597C148.087 51.2926 148.726 51.4091 149.516 51.4091C150.572 51.4091 151.445 51.1534 152.132 50.642C152.82 50.1307 153.163 49.3295 153.163 48.2386V45.5795H152.993C152.845 45.8182 152.635 46.1136 152.362 46.4659C152.095 46.8125 151.709 47.1222 151.203 47.3949C150.703 47.6619 150.027 47.7955 149.175 47.7955C148.118 47.7955 147.169 47.5455 146.328 47.0455C145.493 46.5455 144.831 45.8182 144.342 44.8636C143.859 43.9091 143.618 42.75 143.618 41.3864C143.618 40.0455 143.854 38.8778 144.325 37.8835C144.797 36.8835 145.453 36.1108 146.294 35.5653C147.135 35.0142 148.107 34.7386 149.209 34.7386C150.061 34.7386 150.737 34.8807 151.237 35.1648C151.743 35.4432 152.129 35.7614 152.396 36.1193C152.669 36.4716 152.879 36.7614 153.027 36.9886H153.232V34.9091H155.175V48.375C155.175 49.5 154.919 50.4148 154.408 51.1193C153.902 51.8295 153.22 52.3494 152.362 52.679C151.51 53.0142 150.561 53.1818 149.516 53.1818ZM149.447 45.9886C150.254 45.9886 150.936 45.804 151.493 45.4347C152.05 45.0653 152.473 44.5341 152.763 43.8409C153.053 43.1477 153.197 42.3182 153.197 41.3523C153.197 40.4091 153.055 39.5767 152.771 38.8551C152.487 38.1335 152.067 37.5682 151.51 37.1591C150.953 36.75 150.266 36.5455 149.447 36.5455C148.595 36.5455 147.885 36.7614 147.317 37.1932C146.754 37.625 146.331 38.2045 146.047 38.9318C145.768 39.6591 145.629 40.4659 145.629 41.3523C145.629 42.2614 145.771 43.0653 146.055 43.7642C146.345 44.4574 146.771 45.0028 147.334 45.4006C147.902 45.7926 148.607 45.9886 149.447 45.9886ZM158.857 48V34.9091H160.8V36.8864H160.936C161.175 36.2386 161.607 35.7131 162.232 35.3097C162.857 34.9062 163.561 34.7045 164.345 34.7045C164.493 34.7045 164.678 34.7074 164.899 34.7131C165.121 34.7187 165.288 34.7273 165.402 34.7386V36.7841C165.334 36.767 165.178 36.7415 164.933 36.7074C164.695 36.6676 164.442 36.6477 164.175 36.6477C163.538 36.6477 162.97 36.7812 162.47 37.0483C161.976 37.3097 161.584 37.6733 161.294 38.1392C161.01 38.5994 160.868 39.125 160.868 39.7159V48H158.857ZM172.876 48.2727C171.615 48.2727 170.527 47.9943 169.612 47.4375C168.703 46.875 168.001 46.0909 167.507 45.0852C167.018 44.0739 166.774 42.8977 166.774 41.5568C166.774 40.2159 167.018 39.0341 167.507 38.0114C168.001 36.983 168.689 36.1818 169.57 35.608C170.456 35.0284 171.49 34.7386 172.672 34.7386C173.354 34.7386 174.027 34.8523 174.692 35.0795C175.357 35.3068 175.962 35.6761 176.507 36.1875C177.053 36.6932 177.487 37.3636 177.811 38.1989C178.135 39.0341 178.297 40.0625 178.297 41.2841V42.1364H168.206V40.3977H176.251C176.251 39.6591 176.104 39 175.808 38.4205C175.518 37.8409 175.104 37.3835 174.564 37.0483C174.03 36.7131 173.399 36.5455 172.672 36.5455C171.871 36.5455 171.178 36.7443 170.592 37.142C170.013 37.5341 169.567 38.0455 169.254 38.6761C168.942 39.3068 168.786 39.983 168.786 40.7045V41.8636C168.786 42.8523 168.956 43.6903 169.297 44.3778C169.643 45.0597 170.124 45.5795 170.737 45.9375C171.351 46.2898 172.064 46.4659 172.876 46.4659C173.405 46.4659 173.882 46.392 174.308 46.2443C174.74 46.0909 175.112 45.8636 175.425 45.5625C175.737 45.2557 175.979 44.875 176.149 44.4205L178.092 44.9659C177.888 45.625 177.544 46.2045 177.061 46.7045C176.578 47.1989 175.982 47.5852 175.271 47.8636C174.561 48.1364 173.763 48.2727 172.876 48.2727ZM190.629 37.8409L188.822 38.3523C188.709 38.0511 188.541 37.7585 188.32 37.4744C188.104 37.1847 187.808 36.946 187.433 36.7585C187.058 36.571 186.578 36.4773 185.993 36.4773C185.192 36.4773 184.524 36.6619 183.99 37.0312C183.462 37.3949 183.197 37.858 183.197 38.4205C183.197 38.9205 183.379 39.3153 183.743 39.6051C184.107 39.8949 184.675 40.1364 185.447 40.3295L187.391 40.8068C188.561 41.0909 189.433 41.5256 190.007 42.1108C190.581 42.6903 190.868 43.4375 190.868 44.3523C190.868 45.1023 190.652 45.7727 190.22 46.3636C189.794 46.9545 189.197 47.4205 188.43 47.7614C187.663 48.1023 186.771 48.2727 185.754 48.2727C184.419 48.2727 183.314 47.983 182.439 47.4034C181.564 46.8239 181.01 45.9773 180.777 44.8636L182.686 44.3864C182.868 45.0909 183.212 45.6193 183.717 45.9716C184.229 46.3239 184.896 46.5 185.72 46.5C186.658 46.5 187.402 46.3011 187.953 45.9034C188.51 45.5 188.788 45.017 188.788 44.4545C188.788 44 188.629 43.6193 188.311 43.3125C187.993 43 187.504 42.767 186.845 42.6136L184.663 42.1023C183.464 41.8182 182.584 41.3778 182.021 40.7812C181.464 40.179 181.186 39.4261 181.186 38.5227C181.186 37.7841 181.393 37.1307 181.808 36.5625C182.229 35.9943 182.8 35.5483 183.521 35.2244C184.249 34.9006 185.072 34.7386 185.993 34.7386C187.288 34.7386 188.305 35.0227 189.044 35.5909C189.788 36.1591 190.317 36.9091 190.629 37.8409ZM197.748 48.3068C196.918 48.3068 196.165 48.1506 195.489 47.8381C194.813 47.5199 194.276 47.0625 193.879 46.4659C193.481 45.8636 193.282 45.1364 193.282 44.2841C193.282 43.5341 193.43 42.9261 193.725 42.4602C194.021 41.9886 194.415 41.6193 194.91 41.3523C195.404 41.0852 195.95 40.8864 196.546 40.7557C197.148 40.6193 197.754 40.5114 198.362 40.4318C199.157 40.3295 199.802 40.2528 200.296 40.2017C200.796 40.1449 201.16 40.0511 201.387 39.9205C201.62 39.7898 201.737 39.5625 201.737 39.2386V39.1705C201.737 38.3295 201.506 37.6761 201.046 37.2102C200.592 36.7443 199.901 36.5114 198.975 36.5114C198.015 36.5114 197.262 36.7216 196.717 37.142C196.171 37.5625 195.788 38.0114 195.566 38.4886L193.657 37.8068C193.998 37.0114 194.452 36.392 195.021 35.9489C195.594 35.5 196.219 35.1875 196.896 35.0114C197.577 34.8295 198.248 34.7386 198.907 34.7386C199.327 34.7386 199.81 34.7898 200.356 34.892C200.907 34.9886 201.438 35.1903 201.95 35.4972C202.467 35.804 202.896 36.267 203.237 36.8864C203.577 37.5057 203.748 38.3352 203.748 39.375V48H201.737V46.2273H201.634C201.498 46.5114 201.271 46.8153 200.952 47.1392C200.634 47.4631 200.211 47.7386 199.683 47.9659C199.154 48.1932 198.509 48.3068 197.748 48.3068ZM198.055 46.5C198.85 46.5 199.521 46.3438 200.066 46.0312C200.617 45.7188 201.032 45.3153 201.31 44.821C201.594 44.3267 201.737 43.8068 201.737 43.2614V41.4205C201.651 41.5227 201.464 41.6165 201.174 41.7017C200.89 41.7812 200.56 41.8523 200.185 41.9148C199.816 41.9716 199.455 42.0227 199.103 42.0682C198.756 42.108 198.475 42.142 198.259 42.1705C197.737 42.2386 197.248 42.3494 196.793 42.5028C196.344 42.6506 195.981 42.875 195.702 43.1761C195.43 43.4716 195.293 43.875 195.293 44.3864C195.293 45.0852 195.552 45.6136 196.069 45.9716C196.592 46.3239 197.254 46.5 198.055 46.5ZM207.419 48V34.9091H209.362V36.8864H209.499C209.737 36.2386 210.169 35.7131 210.794 35.3097C211.419 34.9062 212.124 34.7045 212.908 34.7045C213.055 34.7045 213.24 34.7074 213.462 34.7131C213.683 34.7187 213.851 34.7273 213.964 34.7386V36.7841C213.896 36.767 213.74 36.7415 213.496 36.7074C213.257 36.6676 213.004 36.6477 212.737 36.6477C212.101 36.6477 211.533 36.7812 211.033 37.0483C210.538 37.3097 210.146 37.6733 209.857 38.1392C209.572 38.5994 209.43 39.125 209.43 39.7159V48H207.419Z" fill="#FAFAFA"/>
</g>
<defs>
<filter id="filter0_d_139_28" x="0" y="0" width="337" height="87" filterUnits="userSpaceOnUse" color-interpolation-filters="sRGB">
<feFlood flood-opacity="0" result="BackgroundImageFix"/>
<feColorMatrix in="SourceAlpha" type="matrix" values="0 0 0 0 0 0 0 0 0 0 0 0 0 0 0 0 0 0 127 0" result="hardAlpha"/>
<feMorphology radius="4" operator="dilate" in="SourceAlpha" result="effect1_dropShadow_139_28"/>
<feOffset dy="4"/>
<feGaussianBlur stdDeviation="6"/>
<feComposite in2="hardAlpha" operator="out"/>
<feColorMatrix type="matrix" values="0 0 0 0 0.67451 0 0 0 0 0.498039 0 0 0 0 0.784314 0 0 0 0.25 0"/>
<feBlend mode="normal" in2="BackgroundImageFix" result="effect1_dropShadow_139_28"/>
<feBlend mode="normal" in="SourceGraphic" in2="effect1_dropShadow_139_28" result="shape"/>
</filter>
</defs>
</svg>
