<svg width="336" height="87" viewBox="0 0 336 87" fill="none" xmlns="http://www.w3.org/2000/svg">
<g filter="url(#filter0_d_228_1325)">
<rect x="16" y="12" width="304" height="55" rx="10" fill="#AC7FC8" shape-rendering="crispEdges"/>
<path d="M126.659 34.9091C126.557 34.0455 126.142 33.375 125.415 32.8977C124.688 32.4205 123.795 32.1818 122.739 32.1818C121.966 32.1818 121.29 32.3068 120.71 32.5568C120.136 32.8068 119.688 33.1506 119.364 33.5881C119.045 34.0256 118.886 34.5227 118.886 35.0795C118.886 35.5455 118.997 35.946 119.219 36.2812C119.446 36.6108 119.736 36.8864 120.088 37.108C120.44 37.3239 120.81 37.5028 121.196 37.6449C121.582 37.7812 121.938 37.892 122.261 37.9773L124.034 38.4545C124.489 38.5739 124.994 38.7386 125.551 38.9489C126.114 39.1591 126.651 39.446 127.162 39.8097C127.679 40.1676 128.105 40.6278 128.44 41.1903C128.776 41.7528 128.943 42.4432 128.943 43.2614C128.943 44.2045 128.696 45.0568 128.202 45.8182C127.713 46.5795 126.997 47.1847 126.054 47.6335C125.116 48.0824 123.977 48.3068 122.636 48.3068C121.386 48.3068 120.304 48.1051 119.389 47.7017C118.48 47.2983 117.764 46.7358 117.241 46.0142C116.724 45.2926 116.432 44.4545 116.364 43.5H118.545C118.602 44.1591 118.824 44.7045 119.21 45.1364C119.602 45.5625 120.097 45.8807 120.693 46.0909C121.295 46.2955 121.943 46.3977 122.636 46.3977C123.443 46.3977 124.168 46.267 124.81 46.0057C125.452 45.7386 125.96 45.3693 126.335 44.8977C126.71 44.4205 126.898 43.8636 126.898 43.2273C126.898 42.6477 126.736 42.1761 126.412 41.8125C126.088 41.4489 125.662 41.1534 125.134 40.9261C124.605 40.6989 124.034 40.5 123.42 40.3295L121.273 39.7159C119.909 39.3239 118.83 38.7642 118.034 38.0369C117.239 37.3097 116.841 36.358 116.841 35.1818C116.841 34.2045 117.105 33.3523 117.634 32.625C118.168 31.892 118.884 31.3239 119.781 30.9205C120.685 30.5114 121.693 30.3068 122.807 30.3068C123.932 30.3068 124.932 30.5085 125.807 30.9119C126.682 31.3097 127.375 31.8551 127.886 32.5483C128.403 33.2415 128.676 34.0284 128.705 34.9091H126.659ZM132.146 48V34.9091H134.157V48H132.146ZM133.168 32.7273C132.776 32.7273 132.438 32.5938 132.154 32.3267C131.876 32.0597 131.737 31.7386 131.737 31.3636C131.737 30.9886 131.876 30.6676 132.154 30.4006C132.438 30.1335 132.776 30 133.168 30C133.56 30 133.896 30.1335 134.174 30.4006C134.458 30.6676 134.6 30.9886 134.6 31.3636C134.6 31.7386 134.458 32.0597 134.174 32.3267C133.896 32.5938 133.56 32.7273 133.168 32.7273ZM143.125 53.1818C142.153 53.1818 141.318 53.0568 140.619 52.8068C139.92 52.5625 139.338 52.2386 138.872 51.8352C138.412 51.4375 138.045 51.0114 137.773 50.5568L139.375 49.4318C139.557 49.6705 139.787 49.9432 140.065 50.25C140.344 50.5625 140.724 50.8324 141.207 51.0597C141.696 51.2926 142.335 51.4091 143.125 51.4091C144.182 51.4091 145.054 51.1534 145.741 50.642C146.429 50.1307 146.773 49.3295 146.773 48.2386V45.5795H146.602C146.455 45.8182 146.244 46.1136 145.972 46.4659C145.705 46.8125 145.318 47.1222 144.812 47.3949C144.312 47.6619 143.636 47.7955 142.784 47.7955C141.727 47.7955 140.778 47.5455 139.938 47.0455C139.102 46.5455 138.44 45.8182 137.952 44.8636C137.469 43.9091 137.227 42.75 137.227 41.3864C137.227 40.0455 137.463 38.8778 137.935 37.8835C138.406 36.8835 139.063 36.1108 139.903 35.5653C140.744 35.0142 141.716 34.7386 142.818 34.7386C143.67 34.7386 144.347 34.8807 144.847 35.1648C145.352 35.4432 145.739 35.7614 146.006 36.1193C146.278 36.4716 146.489 36.7614 146.636 36.9886H146.841V34.9091H148.784V48.375C148.784 49.5 148.528 50.4148 148.017 51.1193C147.511 51.8295 146.83 52.3494 145.972 52.679C145.119 53.0142 144.17 53.1818 143.125 53.1818ZM143.057 45.9886C143.864 45.9886 144.545 45.804 145.102 45.4347C145.659 45.0653 146.082 44.5341 146.372 43.8409C146.662 43.1477 146.807 42.3182 146.807 41.3523C146.807 40.4091 146.665 39.5767 146.381 38.8551C146.097 38.1335 145.676 37.5682 145.119 37.1591C144.563 36.75 143.875 36.5455 143.057 36.5455C142.205 36.5455 141.494 36.7614 140.926 37.1932C140.364 37.625 139.94 38.2045 139.656 38.9318C139.378 39.6591 139.239 40.4659 139.239 41.3523C139.239 42.2614 139.381 43.0653 139.665 43.7642C139.955 44.4574 140.381 45.0028 140.943 45.4006C141.511 45.7926 142.216 45.9886 143.057 45.9886ZM160.716 42.6477V34.9091H162.727V48H160.716V45.7841H160.58C160.273 46.4489 159.795 47.0142 159.148 47.4801C158.5 47.9403 157.682 48.1705 156.693 48.1705C155.875 48.1705 155.148 47.9915 154.511 47.6335C153.875 47.2699 153.375 46.7244 153.011 45.9972C152.648 45.2642 152.466 44.3409 152.466 43.2273V34.9091H154.477V43.0909C154.477 44.0455 154.744 44.8068 155.278 45.375C155.818 45.9432 156.506 46.2273 157.341 46.2273C157.841 46.2273 158.349 46.0994 158.866 45.8438C159.389 45.5881 159.827 45.196 160.179 44.6676C160.537 44.1392 160.716 43.4659 160.716 42.6477ZM166.411 48V34.9091H168.423V48H166.411ZM167.434 32.7273C167.042 32.7273 166.704 32.5938 166.42 32.3267C166.141 32.0597 166.002 31.7386 166.002 31.3636C166.002 30.9886 166.141 30.6676 166.42 30.4006C166.704 30.1335 167.042 30 167.434 30C167.826 30 168.161 30.1335 168.44 30.4006C168.724 30.6676 168.866 30.9886 168.866 31.3636C168.866 31.7386 168.724 32.0597 168.44 32.3267C168.161 32.5938 167.826 32.7273 167.434 32.7273ZM177.595 48.2727C176.334 48.2727 175.246 47.9943 174.331 47.4375C173.422 46.875 172.72 46.0909 172.226 45.0852C171.737 44.0739 171.493 42.8977 171.493 41.5568C171.493 40.2159 171.737 39.0341 172.226 38.0114C172.72 36.983 173.408 36.1818 174.288 35.608C175.175 35.0284 176.209 34.7386 177.391 34.7386C178.072 34.7386 178.746 34.8523 179.411 35.0795C180.075 35.3068 180.68 35.6761 181.226 36.1875C181.771 36.6932 182.206 37.3636 182.53 38.1989C182.854 39.0341 183.016 40.0625 183.016 41.2841V42.1364H172.925V40.3977H180.97C180.97 39.6591 180.822 39 180.527 38.4205C180.237 37.8409 179.822 37.3835 179.283 37.0483C178.749 36.7131 178.118 36.5455 177.391 36.5455C176.589 36.5455 175.896 36.7443 175.311 37.142C174.732 37.5341 174.286 38.0455 173.973 38.6761C173.661 39.3068 173.504 39.983 173.504 40.7045V41.8636C173.504 42.8523 173.675 43.6903 174.016 44.3778C174.362 45.0597 174.842 45.5795 175.456 45.9375C176.07 46.2898 176.783 46.4659 177.595 46.4659C178.124 46.4659 178.601 46.392 179.027 46.2443C179.459 46.0909 179.831 45.8636 180.143 45.5625C180.456 45.2557 180.697 44.875 180.868 44.4205L182.811 44.9659C182.607 45.625 182.263 46.2045 181.78 46.7045C181.297 47.1989 180.7 47.5852 179.99 47.8636C179.28 48.1364 178.482 48.2727 177.595 48.2727ZM188.087 40.125V48H186.075V34.9091H188.018V36.9545H188.189C188.496 36.2898 188.962 35.7557 189.587 35.3523C190.212 34.9432 191.018 34.7386 192.007 34.7386C192.893 34.7386 193.669 34.9205 194.334 35.2841C194.999 35.642 195.516 36.1875 195.885 36.9205C196.254 37.6477 196.439 38.5682 196.439 39.6818V48H194.428V39.8182C194.428 38.7898 194.161 37.9886 193.626 37.4148C193.092 36.8352 192.359 36.5455 191.428 36.5455C190.786 36.5455 190.212 36.6847 189.706 36.9631C189.206 37.2415 188.811 37.6477 188.521 38.1818C188.232 38.7159 188.087 39.3636 188.087 40.125ZM205.808 34.9091V36.6136H199.023V34.9091H205.808ZM201.001 31.7727H203.012V44.25C203.012 44.8182 203.094 45.2443 203.259 45.5284C203.43 45.8068 203.646 45.9943 203.907 46.0909C204.174 46.1818 204.455 46.2273 204.751 46.2273C204.972 46.2273 205.154 46.2159 205.296 46.1932C205.438 46.1648 205.552 46.142 205.637 46.125L206.046 47.9318C205.91 47.983 205.719 48.0341 205.475 48.0852C205.231 48.142 204.921 48.1705 204.546 48.1705C203.978 48.1705 203.421 48.0483 202.876 47.804C202.336 47.5597 201.887 47.1875 201.529 46.6875C201.177 46.1875 201.001 45.5568 201.001 44.7955V31.7727ZM214.181 48.2727C212.92 48.2727 211.832 47.9943 210.917 47.4375C210.008 46.875 209.306 46.0909 208.812 45.0852C208.323 44.0739 208.079 42.8977 208.079 41.5568C208.079 40.2159 208.323 39.0341 208.812 38.0114C209.306 36.983 209.994 36.1818 210.874 35.608C211.761 35.0284 212.795 34.7386 213.977 34.7386C214.658 34.7386 215.332 34.8523 215.996 35.0795C216.661 35.3068 217.266 35.6761 217.812 36.1875C218.357 36.6932 218.792 37.3636 219.116 38.1989C219.44 39.0341 219.602 40.0625 219.602 41.2841V42.1364H209.511V40.3977H217.556C217.556 39.6591 217.408 39 217.113 38.4205C216.823 37.8409 216.408 37.3835 215.869 37.0483C215.335 36.7131 214.704 36.5455 213.977 36.5455C213.175 36.5455 212.482 36.7443 211.897 37.142C211.317 37.5341 210.871 38.0455 210.559 38.6761C210.246 39.3068 210.09 39.983 210.09 40.7045V41.8636C210.09 42.8523 210.261 43.6903 210.602 44.3778C210.948 45.0597 211.428 45.5795 212.042 45.9375C212.656 46.2898 213.369 46.4659 214.181 46.4659C214.71 46.4659 215.187 46.392 215.613 46.2443C216.045 46.0909 216.417 45.8636 216.729 45.5625C217.042 45.2557 217.283 44.875 217.454 44.4205L219.397 44.9659C219.192 45.625 218.849 46.2045 218.366 46.7045C217.883 47.1989 217.286 47.5852 216.576 47.8636C215.866 48.1364 215.067 48.2727 214.181 48.2727Z" fill="#FAFAFA"/>
</g>
<defs>
<filter id="filter0_d_228_1325" x="0" y="0" width="336" height="87" filterUnits="userSpaceOnUse" color-interpolation-filters="sRGB">
<feFlood flood-opacity="0" result="BackgroundImageFix"/>
<feColorMatrix in="SourceAlpha" type="matrix" values="0 0 0 0 0 0 0 0 0 0 0 0 0 0 0 0 0 0 127 0" result="hardAlpha"/>
<feMorphology radius="4" operator="dilate" in="SourceAlpha" result="effect1_dropShadow_228_1325"/>
<feOffset dy="4"/>
<feGaussianBlur stdDeviation="6"/>
<feComposite in2="hardAlpha" operator="out"/>
<feColorMatrix type="matrix" values="0 0 0 0 0.67451 0 0 0 0 0.498039 0 0 0 0 0.784314 0 0 0 0.25 0"/>
<feBlend mode="normal" in2="BackgroundImageFix" result="effect1_dropShadow_228_1325"/>
<feBlend mode="normal" in="SourceGraphic" in2="effect1_dropShadow_228_1325" result="shape"/>
</filter>
</defs>
</svg>
