<svg width="336" height="68" viewBox="0 0 336 68" fill="none" xmlns="http://www.w3.org/2000/svg">
<g filter="url(#filter0_d_25_43)">
<rect x="16" y="12" width="304" height="36" rx="10" fill="#AC7FC8" shape-rendering="crispEdges"/>
<path d="M126.659 25.4091C126.557 24.5455 126.142 23.875 125.415 23.3977C124.688 22.9205 123.795 22.6818 122.739 22.6818C121.966 22.6818 121.29 22.8068 120.71 23.0568C120.136 23.3068 119.688 23.6506 119.364 24.0881C119.045 24.5256 118.886 25.0227 118.886 25.5795C118.886 26.0455 118.997 26.446 119.219 26.7812C119.446 27.1108 119.736 27.3864 120.088 27.608C120.44 27.8239 120.81 28.0028 121.196 28.1449C121.582 28.2812 121.938 28.392 122.261 28.4773L124.034 28.9545C124.489 29.0739 124.994 29.2386 125.551 29.4489C126.114 29.6591 126.651 29.946 127.162 30.3097C127.679 30.6676 128.105 31.1278 128.44 31.6903C128.776 32.2528 128.943 32.9432 128.943 33.7614C128.943 34.7045 128.696 35.5568 128.202 36.3182C127.713 37.0795 126.997 37.6847 126.054 38.1335C125.116 38.5824 123.977 38.8068 122.636 38.8068C121.386 38.8068 120.304 38.6051 119.389 38.2017C118.48 37.7983 117.764 37.2358 117.241 36.5142C116.724 35.7926 116.432 34.9545 116.364 34H118.545C118.602 34.6591 118.824 35.2045 119.21 35.6364C119.602 36.0625 120.097 36.3807 120.693 36.5909C121.295 36.7955 121.943 36.8977 122.636 36.8977C123.443 36.8977 124.168 36.767 124.81 36.5057C125.452 36.2386 125.96 35.8693 126.335 35.3977C126.71 34.9205 126.898 34.3636 126.898 33.7273C126.898 33.1477 126.736 32.6761 126.412 32.3125C126.088 31.9489 125.662 31.6534 125.134 31.4261C124.605 31.1989 124.034 31 123.42 30.8295L121.273 30.2159C119.909 29.8239 118.83 29.2642 118.034 28.5369C117.239 27.8097 116.841 26.858 116.841 25.6818C116.841 24.7045 117.105 23.8523 117.634 23.125C118.168 22.392 118.884 21.8239 119.781 21.4205C120.685 21.0114 121.693 20.8068 122.807 20.8068C123.932 20.8068 124.932 21.0085 125.807 21.4119C126.682 21.8097 127.375 22.3551 127.886 23.0483C128.403 23.7415 128.676 24.5284 128.705 25.4091H126.659ZM132.146 38.5V25.4091H134.157V38.5H132.146ZM133.168 23.2273C132.776 23.2273 132.438 23.0938 132.154 22.8267C131.876 22.5597 131.737 22.2386 131.737 21.8636C131.737 21.4886 131.876 21.1676 132.154 20.9006C132.438 20.6335 132.776 20.5 133.168 20.5C133.56 20.5 133.896 20.6335 134.174 20.9006C134.458 21.1676 134.6 21.4886 134.6 21.8636C134.6 22.2386 134.458 22.5597 134.174 22.8267C133.896 23.0938 133.56 23.2273 133.168 23.2273ZM143.125 43.6818C142.153 43.6818 141.318 43.5568 140.619 43.3068C139.92 43.0625 139.338 42.7386 138.872 42.3352C138.412 41.9375 138.045 41.5114 137.773 41.0568L139.375 39.9318C139.557 40.1705 139.787 40.4432 140.065 40.75C140.344 41.0625 140.724 41.3324 141.207 41.5597C141.696 41.7926 142.335 41.9091 143.125 41.9091C144.182 41.9091 145.054 41.6534 145.741 41.142C146.429 40.6307 146.773 39.8295 146.773 38.7386V36.0795H146.602C146.455 36.3182 146.244 36.6136 145.972 36.9659C145.705 37.3125 145.318 37.6222 144.812 37.8949C144.312 38.1619 143.636 38.2955 142.784 38.2955C141.727 38.2955 140.778 38.0455 139.938 37.5455C139.102 37.0455 138.44 36.3182 137.952 35.3636C137.469 34.4091 137.227 33.25 137.227 31.8864C137.227 30.5455 137.463 29.3778 137.935 28.3835C138.406 27.3835 139.063 26.6108 139.903 26.0653C140.744 25.5142 141.716 25.2386 142.818 25.2386C143.67 25.2386 144.347 25.3807 144.847 25.6648C145.352 25.9432 145.739 26.2614 146.006 26.6193C146.278 26.9716 146.489 27.2614 146.636 27.4886H146.841V25.4091H148.784V38.875C148.784 40 148.528 40.9148 148.017 41.6193C147.511 42.3295 146.83 42.8494 145.972 43.179C145.119 43.5142 144.17 43.6818 143.125 43.6818ZM143.057 36.4886C143.864 36.4886 144.545 36.304 145.102 35.9347C145.659 35.5653 146.082 35.0341 146.372 34.3409C146.662 33.6477 146.807 32.8182 146.807 31.8523C146.807 30.9091 146.665 30.0767 146.381 29.3551C146.097 28.6335 145.676 28.0682 145.119 27.6591C144.563 27.25 143.875 27.0455 143.057 27.0455C142.205 27.0455 141.494 27.2614 140.926 27.6932C140.364 28.125 139.94 28.7045 139.656 29.4318C139.378 30.1591 139.239 30.9659 139.239 31.8523C139.239 32.7614 139.381 33.5653 139.665 34.2642C139.955 34.9574 140.381 35.5028 140.943 35.9006C141.511 36.2926 142.216 36.4886 143.057 36.4886ZM160.716 33.1477V25.4091H162.727V38.5H160.716V36.2841H160.58C160.273 36.9489 159.795 37.5142 159.148 37.9801C158.5 38.4403 157.682 38.6705 156.693 38.6705C155.875 38.6705 155.148 38.4915 154.511 38.1335C153.875 37.7699 153.375 37.2244 153.011 36.4972C152.648 35.7642 152.466 34.8409 152.466 33.7273V25.4091H154.477V33.5909C154.477 34.5455 154.744 35.3068 155.278 35.875C155.818 36.4432 156.506 36.7273 157.341 36.7273C157.841 36.7273 158.349 36.5994 158.866 36.3438C159.389 36.0881 159.827 35.696 160.179 35.1676C160.537 34.6392 160.716 33.9659 160.716 33.1477ZM166.411 38.5V25.4091H168.423V38.5H166.411ZM167.434 23.2273C167.042 23.2273 166.704 23.0938 166.42 22.8267C166.141 22.5597 166.002 22.2386 166.002 21.8636C166.002 21.4886 166.141 21.1676 166.42 20.9006C166.704 20.6335 167.042 20.5 167.434 20.5C167.826 20.5 168.161 20.6335 168.44 20.9006C168.724 21.1676 168.866 21.4886 168.866 21.8636C168.866 22.2386 168.724 22.5597 168.44 22.8267C168.161 23.0938 167.826 23.2273 167.434 23.2273ZM177.595 38.7727C176.334 38.7727 175.246 38.4943 174.331 37.9375C173.422 37.375 172.72 36.5909 172.226 35.5852C171.737 34.5739 171.493 33.3977 171.493 32.0568C171.493 30.7159 171.737 29.5341 172.226 28.5114C172.72 27.483 173.408 26.6818 174.288 26.108C175.175 25.5284 176.209 25.2386 177.391 25.2386C178.072 25.2386 178.746 25.3523 179.411 25.5795C180.075 25.8068 180.68 26.1761 181.226 26.6875C181.771 27.1932 182.206 27.8636 182.53 28.6989C182.854 29.5341 183.016 30.5625 183.016 31.7841V32.6364H172.925V30.8977H180.97C180.97 30.1591 180.822 29.5 180.527 28.9205C180.237 28.3409 179.822 27.8835 179.283 27.5483C178.749 27.2131 178.118 27.0455 177.391 27.0455C176.589 27.0455 175.896 27.2443 175.311 27.642C174.732 28.0341 174.286 28.5455 173.973 29.1761C173.661 29.8068 173.504 30.483 173.504 31.2045V32.3636C173.504 33.3523 173.675 34.1903 174.016 34.8778C174.362 35.5597 174.842 36.0795 175.456 36.4375C176.07 36.7898 176.783 36.9659 177.595 36.9659C178.124 36.9659 178.601 36.892 179.027 36.7443C179.459 36.5909 179.831 36.3636 180.143 36.0625C180.456 35.7557 180.697 35.375 180.868 34.9205L182.811 35.4659C182.607 36.125 182.263 36.7045 181.78 37.2045C181.297 37.6989 180.7 38.0852 179.99 38.3636C179.28 38.6364 178.482 38.7727 177.595 38.7727ZM188.087 30.625V38.5H186.075V25.4091H188.018V27.4545H188.189C188.496 26.7898 188.962 26.2557 189.587 25.8523C190.212 25.4432 191.018 25.2386 192.007 25.2386C192.893 25.2386 193.669 25.4205 194.334 25.7841C194.999 26.142 195.516 26.6875 195.885 27.4205C196.254 28.1477 196.439 29.0682 196.439 30.1818V38.5H194.428V30.3182C194.428 29.2898 194.161 28.4886 193.626 27.9148C193.092 27.3352 192.359 27.0455 191.428 27.0455C190.786 27.0455 190.212 27.1847 189.706 27.4631C189.206 27.7415 188.811 28.1477 188.521 28.6818C188.232 29.2159 188.087 29.8636 188.087 30.625ZM205.808 25.4091V27.1136H199.023V25.4091H205.808ZM201.001 22.2727H203.012V34.75C203.012 35.3182 203.094 35.7443 203.259 36.0284C203.43 36.3068 203.646 36.4943 203.907 36.5909C204.174 36.6818 204.455 36.7273 204.751 36.7273C204.972 36.7273 205.154 36.7159 205.296 36.6932C205.438 36.6648 205.552 36.642 205.637 36.625L206.046 38.4318C205.91 38.483 205.719 38.5341 205.475 38.5852C205.231 38.642 204.921 38.6705 204.546 38.6705C203.978 38.6705 203.421 38.5483 202.876 38.304C202.336 38.0597 201.887 37.6875 201.529 37.1875C201.177 36.6875 201.001 36.0568 201.001 35.2955V22.2727ZM214.181 38.7727C212.92 38.7727 211.832 38.4943 210.917 37.9375C210.008 37.375 209.306 36.5909 208.812 35.5852C208.323 34.5739 208.079 33.3977 208.079 32.0568C208.079 30.7159 208.323 29.5341 208.812 28.5114C209.306 27.483 209.994 26.6818 210.874 26.108C211.761 25.5284 212.795 25.2386 213.977 25.2386C214.658 25.2386 215.332 25.3523 215.996 25.5795C216.661 25.8068 217.266 26.1761 217.812 26.6875C218.357 27.1932 218.792 27.8636 219.116 28.6989C219.44 29.5341 219.602 30.5625 219.602 31.7841V32.6364H209.511V30.8977H217.556C217.556 30.1591 217.408 29.5 217.113 28.9205C216.823 28.3409 216.408 27.8835 215.869 27.5483C215.335 27.2131 214.704 27.0455 213.977 27.0455C213.175 27.0455 212.482 27.2443 211.897 27.642C211.317 28.0341 210.871 28.5455 210.559 29.1761C210.246 29.8068 210.09 30.483 210.09 31.2045V32.3636C210.09 33.3523 210.261 34.1903 210.602 34.8778C210.948 35.5597 211.428 36.0795 212.042 36.4375C212.656 36.7898 213.369 36.9659 214.181 36.9659C214.71 36.9659 215.187 36.892 215.613 36.7443C216.045 36.5909 216.417 36.3636 216.729 36.0625C217.042 35.7557 217.283 35.375 217.454 34.9205L219.397 35.4659C219.192 36.125 218.849 36.7045 218.366 37.2045C217.883 37.6989 217.286 38.0852 216.576 38.3636C215.866 38.6364 215.067 38.7727 214.181 38.7727Z" fill="#FAFAFA"/>
</g>
<defs>
<filter id="filter0_d_25_43" x="0" y="0" width="336" height="68" filterUnits="userSpaceOnUse" color-interpolation-filters="sRGB">
<feFlood flood-opacity="0" result="BackgroundImageFix"/>
<feColorMatrix in="SourceAlpha" type="matrix" values="0 0 0 0 0 0 0 0 0 0 0 0 0 0 0 0 0 0 127 0" result="hardAlpha"/>
<feMorphology radius="4" operator="dilate" in="SourceAlpha" result="effect1_dropShadow_25_43"/>
<feOffset dy="4"/>
<feGaussianBlur stdDeviation="6"/>
<feComposite in2="hardAlpha" operator="out"/>
<feColorMatrix type="matrix" values="0 0 0 0 0.67451 0 0 0 0 0.498039 0 0 0 0 0.784314 0 0 0 0.25 0"/>
<feBlend mode="normal" in2="BackgroundImageFix" result="effect1_dropShadow_25_43"/>
<feBlend mode="normal" in="SourceGraphic" in2="effect1_dropShadow_25_43" result="shape"/>
</filter>
</defs>
</svg>
