<svg width="337" height="87" viewBox="0 0 337 87" fill="none" xmlns="http://www.w3.org/2000/svg">
<g filter="url(#filter0_d_228_1993)">
<rect x="16" y="12" width="305" height="55" rx="10" fill="#AC7FC8" shape-rendering="crispEdges"/>
<path d="M106.114 48V30.5455H112.011C113.375 30.5455 114.494 30.7784 115.369 31.2443C116.244 31.7045 116.892 32.3381 117.312 33.1449C117.733 33.9517 117.943 34.8693 117.943 35.8977C117.943 36.9261 117.733 37.8381 117.312 38.6335C116.892 39.429 116.247 40.054 115.378 40.5085C114.509 40.9574 113.398 41.1818 112.045 41.1818H107.273V39.2727H111.977C112.909 39.2727 113.659 39.1364 114.227 38.8636C114.801 38.5909 115.216 38.2045 115.472 37.7045C115.733 37.1989 115.864 36.5966 115.864 35.8977C115.864 35.1989 115.733 34.5881 115.472 34.0653C115.21 33.5426 114.793 33.1392 114.219 32.8551C113.645 32.5653 112.886 32.4205 111.943 32.4205H108.227V48H106.114ZM114.33 40.1591L118.625 48H116.17L111.943 40.1591H114.33ZM126.54 48.2727C125.279 48.2727 124.191 47.9943 123.276 47.4375C122.367 46.875 121.665 46.0909 121.171 45.0852C120.683 44.0739 120.438 42.8977 120.438 41.5568C120.438 40.2159 120.683 39.0341 121.171 38.0114C121.665 36.983 122.353 36.1818 123.234 35.608C124.12 35.0284 125.154 34.7386 126.336 34.7386C127.018 34.7386 127.691 34.8523 128.356 35.0795C129.021 35.3068 129.626 35.6761 130.171 36.1875C130.717 36.6932 131.151 37.3636 131.475 38.1989C131.799 39.0341 131.961 40.0625 131.961 41.2841V42.1364H121.87V40.3977H129.915C129.915 39.6591 129.768 39 129.472 38.4205C129.183 37.8409 128.768 37.3835 128.228 37.0483C127.694 36.7131 127.063 36.5455 126.336 36.5455C125.535 36.5455 124.842 36.7443 124.256 37.142C123.677 37.5341 123.231 38.0455 122.918 38.6761C122.606 39.3068 122.45 39.983 122.45 40.7045V41.8636C122.45 42.8523 122.62 43.6903 122.961 44.3778C123.308 45.0597 123.788 45.5795 124.401 45.9375C125.015 46.2898 125.728 46.4659 126.54 46.4659C127.069 46.4659 127.546 46.392 127.972 46.2443C128.404 46.0909 128.776 45.8636 129.089 45.5625C129.401 45.2557 129.643 44.875 129.813 44.4205L131.756 44.9659C131.552 45.625 131.208 46.2045 130.725 46.7045C130.242 47.1989 129.646 47.5852 128.935 47.8636C128.225 48.1364 127.427 48.2727 126.54 48.2727ZM140.305 53.1818C139.333 53.1818 138.498 53.0568 137.799 52.8068C137.1 52.5625 136.518 52.2386 136.052 51.8352C135.592 51.4375 135.225 51.0114 134.952 50.5568L136.555 49.4318C136.737 49.6705 136.967 49.9432 137.245 50.25C137.523 50.5625 137.904 50.8324 138.387 51.0597C138.876 51.2926 139.515 51.4091 140.305 51.4091C141.362 51.4091 142.234 51.1534 142.921 50.642C143.609 50.1307 143.952 49.3295 143.952 48.2386V45.5795H143.782C143.634 45.8182 143.424 46.1136 143.151 46.4659C142.884 46.8125 142.498 47.1222 141.992 47.3949C141.492 47.6619 140.816 47.7955 139.964 47.7955C138.907 47.7955 137.958 47.5455 137.117 47.0455C136.282 46.5455 135.62 45.8182 135.131 44.8636C134.648 43.9091 134.407 42.75 134.407 41.3864C134.407 40.0455 134.643 38.8778 135.114 37.8835C135.586 36.8835 136.242 36.1108 137.083 35.5653C137.924 35.0142 138.896 34.7386 139.998 34.7386C140.85 34.7386 141.526 34.8807 142.026 35.1648C142.532 35.4432 142.918 35.7614 143.185 36.1193C143.458 36.4716 143.668 36.7614 143.816 36.9886H144.021V34.9091H145.964V48.375C145.964 49.5 145.708 50.4148 145.197 51.1193C144.691 51.8295 144.009 52.3494 143.151 52.679C142.299 53.0142 141.35 53.1818 140.305 53.1818ZM140.237 45.9886C141.043 45.9886 141.725 45.804 142.282 45.4347C142.839 45.0653 143.262 44.5341 143.552 43.8409C143.842 43.1477 143.987 42.3182 143.987 41.3523C143.987 40.4091 143.844 39.5767 143.56 38.8551C143.276 38.1335 142.856 37.5682 142.299 37.1591C141.742 36.75 141.055 36.5455 140.237 36.5455C139.384 36.5455 138.674 36.7614 138.106 37.1932C137.543 37.625 137.12 38.2045 136.836 38.9318C136.558 39.6591 136.418 40.4659 136.418 41.3523C136.418 42.2614 136.56 43.0653 136.844 43.7642C137.134 44.4574 137.56 45.0028 138.123 45.4006C138.691 45.7926 139.396 45.9886 140.237 45.9886ZM149.646 48V34.9091H151.657V48H149.646ZM150.668 32.7273C150.276 32.7273 149.938 32.5938 149.654 32.3267C149.376 32.0597 149.237 31.7386 149.237 31.3636C149.237 30.9886 149.376 30.6676 149.654 30.4006C149.938 30.1335 150.276 30 150.668 30C151.06 30 151.396 30.1335 151.674 30.4006C151.958 30.6676 152.1 30.9886 152.1 31.3636C152.1 31.7386 151.958 32.0597 151.674 32.3267C151.396 32.5938 151.06 32.7273 150.668 32.7273ZM164.614 37.8409L162.807 38.3523C162.693 38.0511 162.526 37.7585 162.304 37.4744C162.088 37.1847 161.793 36.946 161.418 36.7585C161.043 36.571 160.562 36.4773 159.977 36.4773C159.176 36.4773 158.509 36.6619 157.974 37.0312C157.446 37.3949 157.182 37.858 157.182 38.4205C157.182 38.9205 157.364 39.3153 157.727 39.6051C158.091 39.8949 158.659 40.1364 159.432 40.3295L161.375 40.8068C162.545 41.0909 163.418 41.5256 163.991 42.1108C164.565 42.6903 164.852 43.4375 164.852 44.3523C164.852 45.1023 164.636 45.7727 164.205 46.3636C163.778 46.9545 163.182 47.4205 162.415 47.7614C161.648 48.1023 160.756 48.2727 159.739 48.2727C158.403 48.2727 157.298 47.983 156.423 47.4034C155.548 46.8239 154.994 45.9773 154.761 44.8636L156.67 44.3864C156.852 45.0909 157.196 45.6193 157.702 45.9716C158.213 46.3239 158.881 46.5 159.705 46.5C160.642 46.5 161.386 46.3011 161.938 45.9034C162.494 45.5 162.773 45.017 162.773 44.4545C162.773 44 162.614 43.6193 162.295 43.3125C161.977 43 161.489 42.767 160.83 42.6136L158.648 42.1023C157.449 41.8182 156.568 41.3778 156.006 40.7812C155.449 40.179 155.17 39.4261 155.17 38.5227C155.17 37.7841 155.378 37.1307 155.793 36.5625C156.213 35.9943 156.784 35.5483 157.506 35.2244C158.233 34.9006 159.057 34.7386 159.977 34.7386C161.273 34.7386 162.29 35.0227 163.028 35.5909C163.773 36.1591 164.301 36.9091 164.614 37.8409ZM173.573 34.9091V36.6136H166.789V34.9091H173.573ZM168.766 31.7727H170.778V44.25C170.778 44.8182 170.86 45.2443 171.025 45.5284C171.195 45.8068 171.411 45.9943 171.673 46.0909C171.94 46.1818 172.221 46.2273 172.516 46.2273C172.738 46.2273 172.92 46.2159 173.062 46.1932C173.204 46.1648 173.317 46.142 173.403 46.125L173.812 47.9318C173.675 47.983 173.485 48.0341 173.241 48.0852C172.996 48.142 172.687 48.1705 172.312 48.1705C171.744 48.1705 171.187 48.0483 170.641 47.804C170.102 47.5597 169.653 47.1875 169.295 46.6875C168.942 46.1875 168.766 45.5568 168.766 44.7955V31.7727ZM176.599 48V34.9091H178.542V36.8864H178.678C178.917 36.2386 179.349 35.7131 179.974 35.3097C180.599 34.9062 181.303 34.7045 182.087 34.7045C182.235 34.7045 182.42 34.7074 182.641 34.7131C182.863 34.7187 183.031 34.7273 183.144 34.7386V36.7841C183.076 36.767 182.92 36.7415 182.675 36.7074C182.437 36.6676 182.184 36.6477 181.917 36.6477C181.281 36.6477 180.712 36.7812 180.212 37.0483C179.718 37.3097 179.326 37.6733 179.036 38.1392C178.752 38.5994 178.61 39.125 178.61 39.7159V48H176.599ZM189.381 48.3068C188.551 48.3068 187.798 48.1506 187.122 47.8381C186.446 47.5199 185.909 47.0625 185.511 46.4659C185.114 45.8636 184.915 45.1364 184.915 44.2841C184.915 43.5341 185.063 42.9261 185.358 42.4602C185.653 41.9886 186.048 41.6193 186.543 41.3523C187.037 41.0852 187.582 40.8864 188.179 40.7557C188.781 40.6193 189.386 40.5114 189.994 40.4318C190.79 40.3295 191.435 40.2528 191.929 40.2017C192.429 40.1449 192.793 40.0511 193.02 39.9205C193.253 39.7898 193.369 39.5625 193.369 39.2386V39.1705C193.369 38.3295 193.139 37.6761 192.679 37.2102C192.224 36.7443 191.534 36.5114 190.608 36.5114C189.648 36.5114 188.895 36.7216 188.349 37.142C187.804 37.5625 187.42 38.0114 187.199 38.4886L185.29 37.8068C185.631 37.0114 186.085 36.392 186.653 35.9489C187.227 35.5 187.852 35.1875 188.528 35.0114C189.21 34.8295 189.881 34.7386 190.54 34.7386C190.96 34.7386 191.443 34.7898 191.989 34.892C192.54 34.9886 193.071 35.1903 193.582 35.4972C194.099 35.804 194.528 36.267 194.869 36.8864C195.21 37.5057 195.381 38.3352 195.381 39.375V48H193.369V46.2273H193.267C193.131 46.5114 192.903 46.8153 192.585 47.1392C192.267 47.4631 191.844 47.7386 191.315 47.9659C190.787 48.1932 190.142 48.3068 189.381 48.3068ZM189.688 46.5C190.483 46.5 191.153 46.3438 191.699 46.0312C192.25 45.7188 192.665 45.3153 192.943 44.821C193.227 44.3267 193.369 43.8068 193.369 43.2614V41.4205C193.284 41.5227 193.097 41.6165 192.807 41.7017C192.523 41.7812 192.193 41.8523 191.818 41.9148C191.449 41.9716 191.088 42.0227 190.736 42.0682C190.389 42.108 190.108 42.142 189.892 42.1705C189.369 42.2386 188.881 42.3494 188.426 42.5028C187.977 42.6506 187.614 42.875 187.335 43.1761C187.063 43.4716 186.926 43.875 186.926 44.3864C186.926 45.0852 187.185 45.6136 187.702 45.9716C188.224 46.3239 188.886 46.5 189.688 46.5ZM199.052 48V34.9091H200.995V36.8864H201.131C201.37 36.2386 201.802 35.7131 202.427 35.3097C203.052 34.9062 203.756 34.7045 204.54 34.7045C204.688 34.7045 204.873 34.7074 205.094 34.7131C205.316 34.7187 205.484 34.7273 205.597 34.7386V36.7841C205.529 36.767 205.373 36.7415 205.129 36.7074C204.89 36.6676 204.637 36.6477 204.37 36.6477C203.734 36.6477 203.165 36.7812 202.665 37.0483C202.171 37.3097 201.779 37.6733 201.489 38.1392C201.205 38.5994 201.063 39.125 201.063 39.7159V48H199.052ZM217.254 37.8409L215.447 38.3523C215.334 38.0511 215.166 37.7585 214.945 37.4744C214.729 37.1847 214.433 36.946 214.058 36.7585C213.683 36.571 213.203 36.4773 212.618 36.4773C211.817 36.4773 211.149 36.6619 210.615 37.0312C210.087 37.3949 209.822 37.858 209.822 38.4205C209.822 38.9205 210.004 39.3153 210.368 39.6051C210.732 39.8949 211.3 40.1364 212.072 40.3295L214.016 40.8068C215.186 41.0909 216.058 41.5256 216.632 42.1108C217.206 42.6903 217.493 43.4375 217.493 44.3523C217.493 45.1023 217.277 45.7727 216.845 46.3636C216.419 46.9545 215.822 47.4205 215.055 47.7614C214.288 48.1023 213.396 48.2727 212.379 48.2727C211.044 48.2727 209.939 47.983 209.064 47.4034C208.189 46.8239 207.635 45.9773 207.402 44.8636L209.311 44.3864C209.493 45.0909 209.837 45.6193 210.342 45.9716C210.854 46.3239 211.521 46.5 212.345 46.5C213.283 46.5 214.027 46.3011 214.578 45.9034C215.135 45.5 215.413 45.017 215.413 44.4545C215.413 44 215.254 43.6193 214.936 43.3125C214.618 43 214.129 42.767 213.47 42.6136L211.288 42.1023C210.089 41.8182 209.209 41.3778 208.646 40.7812C208.089 40.179 207.811 39.4261 207.811 38.5227C207.811 37.7841 208.018 37.1307 208.433 36.5625C208.854 35.9943 209.425 35.5483 210.146 35.2244C210.874 34.9006 211.697 34.7386 212.618 34.7386C213.913 34.7386 214.93 35.0227 215.669 35.5909C216.413 36.1591 216.942 36.9091 217.254 37.8409ZM226.009 48.2727C224.748 48.2727 223.66 47.9943 222.745 47.4375C221.836 46.875 221.134 46.0909 220.64 45.0852C220.151 44.0739 219.907 42.8977 219.907 41.5568C219.907 40.2159 220.151 39.0341 220.64 38.0114C221.134 36.983 221.822 36.1818 222.702 35.608C223.589 35.0284 224.623 34.7386 225.805 34.7386C226.487 34.7386 227.16 34.8523 227.825 35.0795C228.489 35.3068 229.094 35.6761 229.64 36.1875C230.185 36.6932 230.62 37.3636 230.944 38.1989C231.268 39.0341 231.43 40.0625 231.43 41.2841V42.1364H221.339V40.3977H229.384C229.384 39.6591 229.237 39 228.941 38.4205C228.651 37.8409 228.237 37.3835 227.697 37.0483C227.163 36.7131 226.532 36.5455 225.805 36.5455C225.004 36.5455 224.31 36.7443 223.725 37.142C223.146 37.5341 222.7 38.0455 222.387 38.6761C222.075 39.3068 221.918 39.983 221.918 40.7045V41.8636C221.918 42.8523 222.089 43.6903 222.43 44.3778C222.776 45.0597 223.256 45.5795 223.87 45.9375C224.484 46.2898 225.197 46.4659 226.009 46.4659C226.538 46.4659 227.015 46.392 227.441 46.2443C227.873 46.0909 228.245 45.8636 228.558 45.5625C228.87 45.2557 229.112 44.875 229.282 44.4205L231.225 44.9659C231.021 45.625 230.677 46.2045 230.194 46.7045C229.711 47.1989 229.114 47.5852 228.404 47.8636C227.694 48.1364 226.896 48.2727 226.009 48.2727Z" fill="#FAFAFA"/>
</g>
<defs>
<filter id="filter0_d_228_1993" x="0" y="0" width="337" height="87" filterUnits="userSpaceOnUse" color-interpolation-filters="sRGB">
<feFlood flood-opacity="0" result="BackgroundImageFix"/>
<feColorMatrix in="SourceAlpha" type="matrix" values="0 0 0 0 0 0 0 0 0 0 0 0 0 0 0 0 0 0 127 0" result="hardAlpha"/>
<feMorphology radius="4" operator="dilate" in="SourceAlpha" result="effect1_dropShadow_228_1993"/>
<feOffset dy="4"/>
<feGaussianBlur stdDeviation="6"/>
<feComposite in2="hardAlpha" operator="out"/>
<feColorMatrix type="matrix" values="0 0 0 0 0.67451 0 0 0 0 0.498039 0 0 0 0 0.784314 0 0 0 0.25 0"/>
<feBlend mode="normal" in2="BackgroundImageFix" result="effect1_dropShadow_228_1993"/>
<feBlend mode="normal" in="SourceGraphic" in2="effect1_dropShadow_228_1993" result="shape"/>
</filter>
</defs>
</svg>
