<svg width="337" height="87" viewBox="0 0 337 87" fill="none" xmlns="http://www.w3.org/2000/svg">
<g filter="url(#filter0_d_136_24)">
<rect x="16" y="12" width="305" height="55" rx="10" fill="#AC7FC8" shape-rendering="crispEdges"/>
<path d="M136.955 30.5455V48H134.909L125.398 34.2955H125.227V48H123.114V30.5455H125.159L134.705 44.2841H134.875V30.5455H136.955ZM146.4 48.2727C145.138 48.2727 144.05 47.9943 143.136 47.4375C142.227 46.875 141.525 46.0909 141.031 45.0852C140.542 44.0739 140.298 42.8977 140.298 41.5568C140.298 40.2159 140.542 39.0341 141.031 38.0114C141.525 36.983 142.212 36.1818 143.093 35.608C143.979 35.0284 145.013 34.7386 146.195 34.7386C146.877 34.7386 147.55 34.8523 148.215 35.0795C148.88 35.3068 149.485 35.6761 150.031 36.1875C150.576 36.6932 151.011 37.3636 151.335 38.1989C151.658 39.0341 151.82 40.0625 151.82 41.2841V42.1364H141.729V40.3977H149.775C149.775 39.6591 149.627 39 149.332 38.4205C149.042 37.8409 148.627 37.3835 148.087 37.0483C147.553 36.7131 146.923 36.5455 146.195 36.5455C145.394 36.5455 144.701 36.7443 144.116 37.142C143.536 37.5341 143.09 38.0455 142.778 38.6761C142.465 39.3068 142.309 39.983 142.309 40.7045V41.8636C142.309 42.8523 142.479 43.6903 142.82 44.3778C143.167 45.0597 143.647 45.5795 144.261 45.9375C144.874 46.2898 145.587 46.4659 146.4 46.4659C146.928 46.4659 147.406 46.392 147.832 46.2443C148.263 46.0909 148.636 45.8636 148.948 45.5625C149.261 45.2557 149.502 44.875 149.673 44.4205L151.616 44.9659C151.411 45.625 151.067 46.2045 150.585 46.7045C150.102 47.1989 149.505 47.5852 148.795 47.8636C148.085 48.1364 147.286 48.2727 146.4 48.2727ZM160.164 53.1818C159.192 53.1818 158.357 53.0568 157.658 52.8068C156.96 52.5625 156.377 52.2386 155.911 51.8352C155.451 51.4375 155.085 51.0114 154.812 50.5568L156.414 49.4318C156.596 49.6705 156.826 49.9432 157.104 50.25C157.383 50.5625 157.763 50.8324 158.246 51.0597C158.735 51.2926 159.374 51.4091 160.164 51.4091C161.221 51.4091 162.093 51.1534 162.781 50.642C163.468 50.1307 163.812 49.3295 163.812 48.2386V45.5795H163.641C163.494 45.8182 163.283 46.1136 163.011 46.4659C162.744 46.8125 162.357 47.1222 161.852 47.3949C161.352 47.6619 160.675 47.7955 159.823 47.7955C158.766 47.7955 157.817 47.5455 156.977 47.0455C156.141 46.5455 155.479 45.8182 154.991 44.8636C154.508 43.9091 154.266 42.75 154.266 41.3864C154.266 40.0455 154.502 38.8778 154.974 37.8835C155.445 36.8835 156.102 36.1108 156.942 35.5653C157.783 35.0142 158.755 34.7386 159.857 34.7386C160.71 34.7386 161.386 34.8807 161.886 35.1648C162.391 35.4432 162.778 35.7614 163.045 36.1193C163.317 36.4716 163.528 36.7614 163.675 36.9886H163.88V34.9091H165.823V48.375C165.823 49.5 165.567 50.4148 165.056 51.1193C164.55 51.8295 163.869 52.3494 163.011 52.679C162.158 53.0142 161.21 53.1818 160.164 53.1818ZM160.096 45.9886C160.903 45.9886 161.585 45.804 162.141 45.4347C162.698 45.0653 163.121 44.5341 163.411 43.8409C163.701 43.1477 163.846 42.3182 163.846 41.3523C163.846 40.4091 163.704 39.5767 163.42 38.8551C163.136 38.1335 162.715 37.5682 162.158 37.1591C161.602 36.75 160.914 36.5455 160.096 36.5455C159.244 36.5455 158.533 36.7614 157.965 37.1932C157.403 37.625 156.979 38.2045 156.695 38.9318C156.417 39.6591 156.278 40.4659 156.278 41.3523C156.278 42.2614 156.42 43.0653 156.704 43.7642C156.994 44.4574 157.42 45.0028 157.982 45.4006C158.55 45.7926 159.255 45.9886 160.096 45.9886ZM174.823 48.2727C173.641 48.2727 172.604 47.9915 171.712 47.429C170.826 46.8665 170.133 46.0795 169.633 45.0682C169.138 44.0568 168.891 42.875 168.891 41.5227C168.891 40.1591 169.138 38.9687 169.633 37.9517C170.133 36.9347 170.826 36.1449 171.712 35.5824C172.604 35.0199 173.641 34.7386 174.823 34.7386C176.005 34.7386 177.039 35.0199 177.925 35.5824C178.817 36.1449 179.511 36.9347 180.005 37.9517C180.505 38.9687 180.755 40.1591 180.755 41.5227C180.755 42.875 180.505 44.0568 180.005 45.0682C179.511 46.0795 178.817 46.8665 177.925 47.429C177.039 47.9915 176.005 48.2727 174.823 48.2727ZM174.823 46.4659C175.721 46.4659 176.46 46.2358 177.039 45.7756C177.619 45.3153 178.048 44.7102 178.326 43.9602C178.604 43.2102 178.744 42.3977 178.744 41.5227C178.744 40.6477 178.604 39.8324 178.326 39.0767C178.048 38.321 177.619 37.7102 177.039 37.2443C176.46 36.7784 175.721 36.5455 174.823 36.5455C173.925 36.5455 173.187 36.7784 172.607 37.2443C172.028 37.7102 171.599 38.321 171.32 39.0767C171.042 39.8324 170.903 40.6477 170.903 41.5227C170.903 42.3977 171.042 43.2102 171.32 43.9602C171.599 44.7102 172.028 45.3153 172.607 45.7756C173.187 46.2358 173.925 46.4659 174.823 46.4659ZM189.143 48.2727C187.916 48.2727 186.859 47.983 185.973 47.4034C185.087 46.8239 184.405 46.0256 183.928 45.0085C183.45 43.9915 183.212 42.8295 183.212 41.5227C183.212 40.1932 183.456 39.0199 183.945 38.0028C184.439 36.9801 185.126 36.1818 186.007 35.608C186.893 35.0284 187.928 34.7386 189.109 34.7386C190.03 34.7386 190.859 34.9091 191.598 35.25C192.337 35.5909 192.942 36.0682 193.413 36.6818C193.885 37.2955 194.178 38.0114 194.291 38.8295H192.28C192.126 38.233 191.786 37.7045 191.257 37.2443C190.734 36.7784 190.03 36.5455 189.143 36.5455C188.359 36.5455 187.672 36.75 187.081 37.1591C186.496 37.5625 186.038 38.1335 185.709 38.8722C185.385 39.6051 185.223 40.4659 185.223 41.4545C185.223 42.4659 185.382 43.3466 185.7 44.0966C186.024 44.8466 186.479 45.429 187.064 45.8438C187.655 46.2585 188.348 46.4659 189.143 46.4659C189.666 46.4659 190.141 46.375 190.567 46.1932C190.993 46.0114 191.354 45.75 191.649 45.4091C191.945 45.0682 192.155 44.6591 192.28 44.1818H194.291C194.178 44.9545 193.896 45.6506 193.447 46.2699C193.004 46.8835 192.416 47.3722 191.683 47.7358C190.956 48.0938 190.109 48.2727 189.143 48.2727ZM197.232 48V34.9091H199.243V48H197.232ZM198.254 32.7273C197.862 32.7273 197.524 32.5938 197.24 32.3267C196.962 32.0597 196.822 31.7386 196.822 31.3636C196.822 30.9886 196.962 30.6676 197.24 30.4006C197.524 30.1335 197.862 30 198.254 30C198.646 30 198.982 30.1335 199.26 30.4006C199.544 30.6676 199.686 30.9886 199.686 31.3636C199.686 31.7386 199.544 32.0597 199.26 32.3267C198.982 32.5938 198.646 32.7273 198.254 32.7273ZM208.245 48.2727C207.063 48.2727 206.026 47.9915 205.134 47.429C204.248 46.8665 203.555 46.0795 203.055 45.0682C202.56 44.0568 202.313 42.875 202.313 41.5227C202.313 40.1591 202.56 38.9687 203.055 37.9517C203.555 36.9347 204.248 36.1449 205.134 35.5824C206.026 35.0199 207.063 34.7386 208.245 34.7386C209.427 34.7386 210.461 35.0199 211.347 35.5824C212.239 36.1449 212.933 36.9347 213.427 37.9517C213.927 38.9687 214.177 40.1591 214.177 41.5227C214.177 42.875 213.927 44.0568 213.427 45.0682C212.933 46.0795 212.239 46.8665 211.347 47.429C210.461 47.9915 209.427 48.2727 208.245 48.2727ZM208.245 46.4659C209.143 46.4659 209.881 46.2358 210.461 45.7756C211.04 45.3153 211.469 44.7102 211.748 43.9602C212.026 43.2102 212.165 42.3977 212.165 41.5227C212.165 40.6477 212.026 39.8324 211.748 39.0767C211.469 38.321 211.04 37.7102 210.461 37.2443C209.881 36.7784 209.143 36.5455 208.245 36.5455C207.347 36.5455 206.609 36.7784 206.029 37.2443C205.45 37.7102 205.021 38.321 204.742 39.0767C204.464 39.8324 204.325 40.6477 204.325 41.5227C204.325 42.3977 204.464 43.2102 204.742 43.9602C205.021 44.7102 205.45 45.3153 206.029 45.7756C206.609 46.2358 207.347 46.4659 208.245 46.4659Z" fill="#FAFAFA"/>
</g>
<defs>
<filter id="filter0_d_136_24" x="0" y="0" width="337" height="87" filterUnits="userSpaceOnUse" color-interpolation-filters="sRGB">
<feFlood flood-opacity="0" result="BackgroundImageFix"/>
<feColorMatrix in="SourceAlpha" type="matrix" values="0 0 0 0 0 0 0 0 0 0 0 0 0 0 0 0 0 0 127 0" result="hardAlpha"/>
<feMorphology radius="4" operator="dilate" in="SourceAlpha" result="effect1_dropShadow_136_24"/>
<feOffset dy="4"/>
<feGaussianBlur stdDeviation="6"/>
<feComposite in2="hardAlpha" operator="out"/>
<feColorMatrix type="matrix" values="0 0 0 0 0.67451 0 0 0 0 0.498039 0 0 0 0 0.784314 0 0 0 0.25 0"/>
<feBlend mode="normal" in2="BackgroundImageFix" result="effect1_dropShadow_136_24"/>
<feBlend mode="normal" in="SourceGraphic" in2="effect1_dropShadow_136_24" result="shape"/>
</filter>
</defs>
</svg>
