<svg width="337" height="87" viewBox="0 0 337 87" fill="none" xmlns="http://www.w3.org/2000/svg">
<g filter="url(#filter0_d_92_7)">
<rect x="16" y="12" width="305" height="55" rx="10" fill="#AC7FC8" shape-rendering="crispEdges"/>
<path d="M144.659 36H142.545C142.42 35.392 142.202 34.858 141.889 34.3977C141.582 33.9375 141.207 33.5511 140.764 33.2386C140.327 32.9205 139.841 32.6818 139.307 32.5227C138.773 32.3636 138.216 32.2841 137.636 32.2841C136.58 32.2841 135.622 32.5511 134.764 33.0852C133.912 33.6193 133.233 34.4062 132.727 35.446C132.227 36.4858 131.977 37.7614 131.977 39.2727C131.977 40.7841 132.227 42.0597 132.727 43.0994C133.233 44.1392 133.912 44.9261 134.764 45.4602C135.622 45.9943 136.58 46.2614 137.636 46.2614C138.216 46.2614 138.773 46.1818 139.307 46.0227C139.841 45.8636 140.327 45.6278 140.764 45.3153C141.207 44.9972 141.582 44.608 141.889 44.1477C142.202 43.6818 142.42 43.1477 142.545 42.5455H144.659C144.5 43.4375 144.21 44.2358 143.79 44.9403C143.369 45.6449 142.847 46.2443 142.222 46.7386C141.597 47.2273 140.895 47.5994 140.116 47.8551C139.344 48.1108 138.517 48.2386 137.636 48.2386C136.148 48.2386 134.824 47.875 133.665 47.1477C132.506 46.4205 131.594 45.3864 130.929 44.0455C130.264 42.7045 129.932 41.1136 129.932 39.2727C129.932 37.4318 130.264 35.8409 130.929 34.5C131.594 33.1591 132.506 32.125 133.665 31.3977C134.824 30.6705 136.148 30.3068 137.636 30.3068C138.517 30.3068 139.344 30.4347 140.116 30.6903C140.895 30.946 141.597 31.321 142.222 31.8153C142.847 32.304 143.369 32.9006 143.79 33.6051C144.21 34.304 144.5 35.1023 144.659 36ZM149.813 30.5455V48H147.802V30.5455H149.813ZM153.497 48V34.9091H155.509V48H153.497ZM154.52 32.7273C154.128 32.7273 153.79 32.5938 153.506 32.3267C153.227 32.0597 153.088 31.7386 153.088 31.3636C153.088 30.9886 153.227 30.6676 153.506 30.4006C153.79 30.1335 154.128 30 154.52 30C154.912 30 155.247 30.1335 155.526 30.4006C155.81 30.6676 155.952 30.9886 155.952 31.3636C155.952 31.7386 155.81 32.0597 155.526 32.3267C155.247 32.5938 154.912 32.7273 154.52 32.7273ZM164.681 48.2727C163.42 48.2727 162.332 47.9943 161.417 47.4375C160.508 46.875 159.806 46.0909 159.312 45.0852C158.823 44.0739 158.579 42.8977 158.579 41.5568C158.579 40.2159 158.823 39.0341 159.312 38.0114C159.806 36.983 160.494 36.1818 161.374 35.608C162.261 35.0284 163.295 34.7386 164.477 34.7386C165.158 34.7386 165.832 34.8523 166.496 35.0795C167.161 35.3068 167.766 35.6761 168.312 36.1875C168.857 36.6932 169.292 37.3636 169.616 38.1989C169.94 39.0341 170.102 40.0625 170.102 41.2841V42.1364H160.011V40.3977H168.056C168.056 39.6591 167.908 39 167.613 38.4205C167.323 37.8409 166.908 37.3835 166.369 37.0483C165.835 36.7131 165.204 36.5455 164.477 36.5455C163.675 36.5455 162.982 36.7443 162.397 37.142C161.817 37.5341 161.371 38.0455 161.059 38.6761C160.746 39.3068 160.59 39.983 160.59 40.7045V41.8636C160.59 42.8523 160.761 43.6903 161.102 44.3778C161.448 45.0597 161.928 45.5795 162.542 45.9375C163.156 46.2898 163.869 46.4659 164.681 46.4659C165.21 46.4659 165.687 46.392 166.113 46.2443C166.545 46.0909 166.917 45.8636 167.229 45.5625C167.542 45.2557 167.783 44.875 167.954 44.4205L169.897 44.9659C169.692 45.625 169.349 46.2045 168.866 46.7045C168.383 47.1989 167.786 47.5852 167.076 47.8636C166.366 48.1364 165.567 48.2727 164.681 48.2727ZM175.173 40.125V48H173.161V34.9091H175.104V36.9545H175.275C175.582 36.2898 176.048 35.7557 176.673 35.3523C177.298 34.9432 178.104 34.7386 179.093 34.7386C179.979 34.7386 180.755 34.9205 181.42 35.2841C182.085 35.642 182.602 36.1875 182.971 36.9205C183.34 37.6477 183.525 38.5682 183.525 39.6818V48H181.513V39.8182C181.513 38.7898 181.246 37.9886 180.712 37.4148C180.178 36.8352 179.445 36.5455 178.513 36.5455C177.871 36.5455 177.298 36.6847 176.792 36.9631C176.292 37.2415 175.897 37.6477 175.607 38.1818C175.317 38.7159 175.173 39.3636 175.173 40.125ZM192.893 34.9091V36.6136H186.109V34.9091H192.893ZM188.087 31.7727H190.098V44.25C190.098 44.8182 190.18 45.2443 190.345 45.5284C190.516 45.8068 190.732 45.9943 190.993 46.0909C191.26 46.1818 191.541 46.2273 191.837 46.2273C192.058 46.2273 192.24 46.2159 192.382 46.1932C192.524 46.1648 192.638 46.142 192.723 46.125L193.132 47.9318C192.996 47.983 192.805 48.0341 192.561 48.0852C192.317 48.142 192.007 48.1705 191.632 48.1705C191.064 48.1705 190.507 48.0483 189.962 47.804C189.422 47.5597 188.973 47.1875 188.615 46.6875C188.263 46.1875 188.087 45.5568 188.087 44.7955V31.7727ZM201.267 48.2727C200.006 48.2727 198.918 47.9943 198.003 47.4375C197.094 46.875 196.392 46.0909 195.898 45.0852C195.409 44.0739 195.165 42.8977 195.165 41.5568C195.165 40.2159 195.409 39.0341 195.898 38.0114C196.392 36.983 197.08 36.1818 197.96 35.608C198.847 35.0284 199.881 34.7386 201.062 34.7386C201.744 34.7386 202.418 34.8523 203.082 35.0795C203.747 35.3068 204.352 35.6761 204.898 36.1875C205.443 36.6932 205.878 37.3636 206.202 38.1989C206.526 39.0341 206.688 40.0625 206.688 41.2841V42.1364H196.597V40.3977H204.642C204.642 39.6591 204.494 39 204.199 38.4205C203.909 37.8409 203.494 37.3835 202.955 37.0483C202.42 36.7131 201.79 36.5455 201.062 36.5455C200.261 36.5455 199.568 36.7443 198.983 37.142C198.403 37.5341 197.957 38.0455 197.645 38.6761C197.332 39.3068 197.176 39.983 197.176 40.7045V41.8636C197.176 42.8523 197.347 43.6903 197.688 44.3778C198.034 45.0597 198.514 45.5795 199.128 45.9375C199.741 46.2898 200.455 46.4659 201.267 46.4659C201.795 46.4659 202.273 46.392 202.699 46.2443C203.131 46.0909 203.503 45.8636 203.815 45.5625C204.128 45.2557 204.369 44.875 204.54 44.4205L206.483 44.9659C206.278 45.625 205.935 46.2045 205.452 46.7045C204.969 47.1989 204.372 47.5852 203.662 47.8636C202.952 48.1364 202.153 48.2727 201.267 48.2727Z" fill="#FAFAFA"/>
</g>
<defs>
<filter id="filter0_d_92_7" x="0" y="0" width="337" height="87" filterUnits="userSpaceOnUse" color-interpolation-filters="sRGB">
<feFlood flood-opacity="0" result="BackgroundImageFix"/>
<feColorMatrix in="SourceAlpha" type="matrix" values="0 0 0 0 0 0 0 0 0 0 0 0 0 0 0 0 0 0 127 0" result="hardAlpha"/>
<feMorphology radius="4" operator="dilate" in="SourceAlpha" result="effect1_dropShadow_92_7"/>
<feOffset dy="4"/>
<feGaussianBlur stdDeviation="6"/>
<feComposite in2="hardAlpha" operator="out"/>
<feColorMatrix type="matrix" values="0 0 0 0 0.67451 0 0 0 0 0.498039 0 0 0 0 0.784314 0 0 0 0.25 0"/>
<feBlend mode="normal" in2="BackgroundImageFix" result="effect1_dropShadow_92_7"/>
<feBlend mode="normal" in="SourceGraphic" in2="effect1_dropShadow_92_7" result="shape"/>
</filter>
</defs>
</svg>
