<svg width="210" height="50" viewBox="0 0 210 50" fill="none" xmlns="http://www.w3.org/2000/svg">
<g filter="url(#filter0_d_139_47)">
<rect x="4" width="202" height="42" rx="10" fill="white" shape-rendering="crispEdges"/>
<path d="M56.1136 29.5V12.0455H62.0114C63.375 12.0455 64.4943 12.2784 65.3693 12.7443C66.2443 13.2045 66.892 13.8381 67.3125 14.6449C67.733 15.4517 67.9432 16.3693 67.9432 17.3977C67.9432 18.4261 67.733 19.3381 67.3125 20.1335C66.892 20.929 66.2472 21.554 65.3778 22.0085C64.5085 22.4574 63.3977 22.6818 62.0455 22.6818H57.2727V20.7727H61.9773C62.9091 20.7727 63.6591 20.6364 64.2273 20.3636C64.8011 20.0909 65.2159 19.7045 65.4716 19.2045C65.733 18.6989 65.8636 18.0966 65.8636 17.3977C65.8636 16.6989 65.733 16.0881 65.4716 15.5653C65.2102 15.0426 64.7926 14.6392 64.2188 14.3551C63.6449 14.0653 62.8864 13.9205 61.9432 13.9205H58.2273V29.5H56.1136ZM64.3295 21.6591L68.625 29.5H66.1705L61.9432 21.6591H64.3295ZM76.5405 29.7727C75.2791 29.7727 74.1911 29.4943 73.2763 28.9375C72.3672 28.375 71.6655 27.5909 71.1712 26.5852C70.6825 25.5739 70.4382 24.3977 70.4382 23.0568C70.4382 21.7159 70.6825 20.5341 71.1712 19.5114C71.6655 18.483 72.353 17.6818 73.2337 17.108C74.12 16.5284 75.1541 16.2386 76.3359 16.2386C77.0178 16.2386 77.6911 16.3523 78.3558 16.5795C79.0206 16.8068 79.6257 17.1761 80.1712 17.6875C80.7166 18.1932 81.1513 18.8636 81.4751 19.6989C81.799 20.5341 81.9609 21.5625 81.9609 22.7841V23.6364H71.87V21.8977H79.9155C79.9155 21.1591 79.7678 20.5 79.4723 19.9205C79.1825 19.3409 78.7678 18.8835 78.228 18.5483C77.6939 18.2131 77.0632 18.0455 76.3359 18.0455C75.5348 18.0455 74.8416 18.2443 74.2564 18.642C73.6768 19.0341 73.2308 19.5455 72.9183 20.1761C72.6058 20.8068 72.4496 21.483 72.4496 22.2045V23.3636C72.4496 24.3523 72.62 25.1903 72.9609 25.8778C73.3075 26.5597 73.7876 27.0795 74.4013 27.4375C75.0149 27.7898 75.728 27.9659 76.5405 27.9659C77.0689 27.9659 77.5462 27.892 77.9723 27.7443C78.4041 27.5909 78.7763 27.3636 79.0888 27.0625C79.4013 26.7557 79.6428 26.375 79.8132 25.9205L81.7564 26.4659C81.5518 27.125 81.2081 27.7045 80.7251 28.2045C80.2422 28.6989 79.6456 29.0852 78.9354 29.3636C78.2251 29.6364 77.4268 29.7727 76.5405 29.7727ZM90.3047 34.6818C89.3331 34.6818 88.4979 34.5568 87.799 34.3068C87.1001 34.0625 86.5178 33.7386 86.0518 33.3352C85.5916 32.9375 85.2251 32.5114 84.9524 32.0568L86.5547 30.9318C86.7365 31.1705 86.9666 31.4432 87.245 31.75C87.5234 32.0625 87.9041 32.3324 88.3871 32.5597C88.8757 32.7926 89.5149 32.9091 90.3047 32.9091C91.3615 32.9091 92.2337 32.6534 92.9212 32.142C93.6087 31.6307 93.9524 30.8295 93.9524 29.7386V27.0795H93.782C93.6342 27.3182 93.424 27.6136 93.1513 27.9659C92.8842 28.3125 92.4979 28.6222 91.9922 28.8949C91.4922 29.1619 90.8161 29.2955 89.9638 29.2955C88.907 29.2955 87.9581 29.0455 87.1172 28.5455C86.282 28.0455 85.62 27.3182 85.1314 26.3636C84.6484 25.4091 84.407 24.25 84.407 22.8864C84.407 21.5455 84.6428 20.3778 85.1143 19.3835C85.5859 18.3835 86.2422 17.6108 87.0831 17.0653C87.924 16.5142 88.8956 16.2386 89.9979 16.2386C90.8501 16.2386 91.5263 16.3807 92.0263 16.6648C92.532 16.9432 92.9183 17.2614 93.1854 17.6193C93.4581 17.9716 93.6683 18.2614 93.8161 18.4886H94.0206V16.4091H95.9638V29.875C95.9638 31 95.7081 31.9148 95.1967 32.6193C94.6911 33.3295 94.0092 33.8494 93.1513 34.179C92.299 34.5142 91.3501 34.6818 90.3047 34.6818ZM90.2365 27.4886C91.0433 27.4886 91.7251 27.304 92.282 26.9347C92.8388 26.5653 93.2621 26.0341 93.5518 25.3409C93.8416 24.6477 93.9865 23.8182 93.9865 22.8523C93.9865 21.9091 93.8445 21.0767 93.5604 20.3551C93.2763 19.6335 92.8558 19.0682 92.299 18.6591C91.7422 18.25 91.0547 18.0455 90.2365 18.0455C89.3842 18.0455 88.674 18.2614 88.1058 18.6932C87.5433 19.125 87.12 19.7045 86.8359 20.4318C86.5575 21.1591 86.4183 21.9659 86.4183 22.8523C86.4183 23.7614 86.5604 24.5653 86.8445 25.2642C87.1342 25.9574 87.5604 26.5028 88.1229 26.9006C88.6911 27.2926 89.3956 27.4886 90.2365 27.4886ZM99.6456 29.5V16.4091H101.589V18.3864H101.725C101.964 17.7386 102.396 17.2131 103.021 16.8097C103.646 16.4062 104.35 16.2045 105.134 16.2045C105.282 16.2045 105.467 16.2074 105.688 16.2131C105.91 16.2187 106.077 16.2273 106.191 16.2386V18.2841C106.123 18.267 105.967 18.2415 105.722 18.2074C105.484 18.1676 105.231 18.1477 104.964 18.1477C104.327 18.1477 103.759 18.2812 103.259 18.5483C102.765 18.8097 102.373 19.1733 102.083 19.6392C101.799 20.0994 101.657 20.625 101.657 21.2159V29.5H99.6456ZM113.665 29.7727C112.404 29.7727 111.316 29.4943 110.401 28.9375C109.492 28.375 108.79 27.5909 108.296 26.5852C107.808 25.5739 107.563 24.3977 107.563 23.0568C107.563 21.7159 107.808 20.5341 108.296 19.5114C108.79 18.483 109.478 17.6818 110.359 17.108C111.245 16.5284 112.279 16.2386 113.461 16.2386C114.143 16.2386 114.816 16.3523 115.481 16.5795C116.146 16.8068 116.751 17.1761 117.296 17.6875C117.842 18.1932 118.276 18.8636 118.6 19.6989C118.924 20.5341 119.086 21.5625 119.086 22.7841V23.6364H108.995V21.8977H117.04C117.04 21.1591 116.893 20.5 116.597 19.9205C116.308 19.3409 115.893 18.8835 115.353 18.5483C114.819 18.2131 114.188 18.0455 113.461 18.0455C112.66 18.0455 111.967 18.2443 111.381 18.642C110.802 19.0341 110.356 19.5455 110.043 20.1761C109.731 20.8068 109.575 21.483 109.575 22.2045V23.3636C109.575 24.3523 109.745 25.1903 110.086 25.8778C110.433 26.5597 110.913 27.0795 111.526 27.4375C112.14 27.7898 112.853 27.9659 113.665 27.9659C114.194 27.9659 114.671 27.892 115.097 27.7443C115.529 27.5909 115.901 27.3636 116.214 27.0625C116.526 26.7557 116.768 26.375 116.938 25.9205L118.881 26.4659C118.677 27.125 118.333 27.7045 117.85 28.2045C117.367 28.6989 116.771 29.0852 116.06 29.3636C115.35 29.6364 114.552 29.7727 113.665 29.7727ZM131.418 19.3409L129.612 19.8523C129.498 19.5511 129.33 19.2585 129.109 18.9744C128.893 18.6847 128.597 18.446 128.222 18.2585C127.847 18.071 127.367 17.9773 126.782 17.9773C125.981 17.9773 125.313 18.1619 124.779 18.5312C124.251 18.8949 123.987 19.358 123.987 19.9205C123.987 20.4205 124.168 20.8153 124.532 21.1051C124.896 21.3949 125.464 21.6364 126.237 21.8295L128.18 22.3068C129.35 22.5909 130.222 23.0256 130.796 23.6108C131.37 24.1903 131.657 24.9375 131.657 25.8523C131.657 26.6023 131.441 27.2727 131.009 27.8636C130.583 28.4545 129.987 28.9205 129.219 29.2614C128.452 29.6023 127.56 29.7727 126.543 29.7727C125.208 29.7727 124.103 29.483 123.228 28.9034C122.353 28.3239 121.799 27.4773 121.566 26.3636L123.475 25.8864C123.657 26.5909 124.001 27.1193 124.506 27.4716C125.018 27.8239 125.685 28 126.509 28C127.447 28 128.191 27.8011 128.742 27.4034C129.299 27 129.577 26.517 129.577 25.9545C129.577 25.5 129.418 25.1193 129.1 24.8125C128.782 24.5 128.293 24.267 127.634 24.1136L125.452 23.6023C124.254 23.3182 123.373 22.8778 122.81 22.2812C122.254 21.679 121.975 20.9261 121.975 20.0227C121.975 19.2841 122.183 18.6307 122.597 18.0625C123.018 17.4943 123.589 17.0483 124.31 16.7244C125.038 16.4006 125.862 16.2386 126.782 16.2386C128.077 16.2386 129.094 16.5227 129.833 17.0909C130.577 17.6591 131.106 18.4091 131.418 19.3409ZM138.537 29.8068C137.707 29.8068 136.955 29.6506 136.278 29.3381C135.602 29.0199 135.065 28.5625 134.668 27.9659C134.27 27.3636 134.071 26.6364 134.071 25.7841C134.071 25.0341 134.219 24.4261 134.514 23.9602C134.81 23.4886 135.205 23.1193 135.699 22.8523C136.193 22.5852 136.739 22.3864 137.335 22.2557C137.938 22.1193 138.543 22.0114 139.151 21.9318C139.946 21.8295 140.591 21.7528 141.085 21.7017C141.585 21.6449 141.949 21.5511 142.176 21.4205C142.409 21.2898 142.526 21.0625 142.526 20.7386V20.6705C142.526 19.8295 142.295 19.1761 141.835 18.7102C141.381 18.2443 140.69 18.0114 139.764 18.0114C138.804 18.0114 138.051 18.2216 137.506 18.642C136.96 19.0625 136.577 19.5114 136.355 19.9886L134.446 19.3068C134.787 18.5114 135.241 17.892 135.81 17.4489C136.384 17 137.009 16.6875 137.685 16.5114C138.366 16.3295 139.037 16.2386 139.696 16.2386C140.116 16.2386 140.599 16.2898 141.145 16.392C141.696 16.4886 142.227 16.6903 142.739 16.9972C143.256 17.304 143.685 17.767 144.026 18.3864C144.366 19.0057 144.537 19.8352 144.537 20.875V29.5H142.526V27.7273H142.423C142.287 28.0114 142.06 28.3153 141.741 28.6392C141.423 28.9631 141 29.2386 140.472 29.4659C139.943 29.6932 139.298 29.8068 138.537 29.8068ZM138.844 28C139.639 28 140.31 27.8438 140.855 27.5312C141.406 27.2188 141.821 26.8153 142.099 26.321C142.384 25.8267 142.526 25.3068 142.526 24.7614V22.9205C142.44 23.0227 142.253 23.1165 141.963 23.2017C141.679 23.2812 141.349 23.3523 140.974 23.4148C140.605 23.4716 140.244 23.5227 139.892 23.5682C139.545 23.608 139.264 23.642 139.048 23.6705C138.526 23.7386 138.037 23.8494 137.582 24.0028C137.134 24.1506 136.77 24.375 136.491 24.6761C136.219 24.9716 136.082 25.375 136.082 25.8864C136.082 26.5852 136.341 27.1136 136.858 27.4716C137.381 27.8239 138.043 28 138.844 28ZM148.208 29.5V16.4091H150.151V18.3864H150.288C150.526 17.7386 150.958 17.2131 151.583 16.8097C152.208 16.4062 152.913 16.2045 153.697 16.2045C153.844 16.2045 154.029 16.2074 154.251 16.2131C154.472 16.2187 154.64 16.2273 154.754 16.2386V18.2841C154.685 18.267 154.529 18.2415 154.285 18.2074C154.046 18.1676 153.793 18.1477 153.526 18.1477C152.89 18.1477 152.322 18.2812 151.822 18.5483C151.327 18.8097 150.935 19.1733 150.646 19.6392C150.362 20.0994 150.219 20.625 150.219 21.2159V29.5H148.208Z" fill="#AC7FC8"/>
<rect x="4.5" y="0.5" width="201" height="41" rx="9.5" stroke="#AC7FC8" shape-rendering="crispEdges"/>
</g>
<defs>
<filter id="filter0_d_139_47" x="0" y="0" width="210" height="50" filterUnits="userSpaceOnUse" color-interpolation-filters="sRGB">
<feFlood flood-opacity="0" result="BackgroundImageFix"/>
<feColorMatrix in="SourceAlpha" type="matrix" values="0 0 0 0 0 0 0 0 0 0 0 0 0 0 0 0 0 0 127 0" result="hardAlpha"/>
<feOffset dy="4"/>
<feGaussianBlur stdDeviation="2"/>
<feComposite in2="hardAlpha" operator="out"/>
<feColorMatrix type="matrix" values="0 0 0 0 0.863166 0 0 0 0 0.817361 0 0 0 0 0.891667 0 0 0 1 0"/>
<feBlend mode="normal" in2="BackgroundImageFix" result="effect1_dropShadow_139_47"/>
<feBlend mode="normal" in="SourceGraphic" in2="effect1_dropShadow_139_47" result="shape"/>
</filter>
</defs>
</svg>
