<svg width="337" height="87" viewBox="0 0 337 87" fill="none" xmlns="http://www.w3.org/2000/svg">
<g filter="url(#filter0_d_136_24)">
<rect x="16" y="12" width="305" height="55" rx="10" fill="#AC7FC8" shape-rendering="crispEdges"/>
<path d="M96.8409 48V34.9091H98.8523V48H96.8409ZM97.8636 32.7273C97.4716 32.7273 97.1335 32.5938 96.8494 32.3267C96.571 32.0597 96.4318 31.7386 96.4318 31.3636C96.4318 30.9886 96.571 30.6676 96.8494 30.4006C97.1335 30.1335 97.4716 30 97.8636 30C98.2557 30 98.5909 30.1335 98.8693 30.4006C99.1534 30.6676 99.2955 30.9886 99.2955 31.3636C99.2955 31.7386 99.1534 32.0597 98.8693 32.3267C98.5909 32.5938 98.2557 32.7273 97.8636 32.7273ZM104.548 40.125V48H102.536V34.9091H104.479V36.9545H104.65C104.957 36.2898 105.423 35.7557 106.048 35.3523C106.673 34.9432 107.479 34.7386 108.468 34.7386C109.354 34.7386 110.13 34.9205 110.795 35.2841C111.46 35.642 111.977 36.1875 112.346 36.9205C112.715 37.6477 112.9 38.5682 112.9 39.6818V48H110.888V39.8182C110.888 38.7898 110.621 37.9886 110.087 37.4148C109.553 36.8352 108.82 36.5455 107.888 36.5455C107.246 36.5455 106.673 36.6847 106.167 36.9631C105.667 37.2415 105.272 37.6477 104.982 38.1818C104.692 38.7159 104.548 39.3636 104.548 40.125ZM116.575 48V34.9091H118.587V48H116.575ZM117.598 32.7273C117.206 32.7273 116.868 32.5938 116.584 32.3267C116.305 32.0597 116.166 31.7386 116.166 31.3636C116.166 30.9886 116.305 30.6676 116.584 30.4006C116.868 30.1335 117.206 30 117.598 30C117.99 30 118.325 30.1335 118.604 30.4006C118.888 30.6676 119.03 30.9886 119.03 31.3636C119.03 31.7386 118.888 32.0597 118.604 32.3267C118.325 32.5938 117.99 32.7273 117.598 32.7273ZM127.589 48.2727C126.362 48.2727 125.305 47.983 124.418 47.4034C123.532 46.8239 122.85 46.0256 122.373 45.0085C121.896 43.9915 121.657 42.8295 121.657 41.5227C121.657 40.1932 121.901 39.0199 122.39 38.0028C122.884 36.9801 123.572 36.1818 124.452 35.608C125.339 35.0284 126.373 34.7386 127.555 34.7386C128.475 34.7386 129.305 34.9091 130.043 35.25C130.782 35.5909 131.387 36.0682 131.859 36.6818C132.33 37.2955 132.623 38.0114 132.737 38.8295H130.725C130.572 38.233 130.231 37.7045 129.702 37.2443C129.18 36.7784 128.475 36.5455 127.589 36.5455C126.805 36.5455 126.117 36.75 125.526 37.1591C124.941 37.5625 124.484 38.1335 124.154 38.8722C123.83 39.6051 123.668 40.4659 123.668 41.4545C123.668 42.4659 123.827 43.3466 124.146 44.0966C124.469 44.8466 124.924 45.429 125.509 45.8438C126.1 46.2585 126.793 46.4659 127.589 46.4659C128.112 46.4659 128.586 46.375 129.012 46.1932C129.438 46.0114 129.799 45.75 130.094 45.4091C130.39 45.0682 130.6 44.6591 130.725 44.1818H132.737C132.623 44.9545 132.342 45.6506 131.893 46.2699C131.45 46.8835 130.862 47.3722 130.129 47.7358C129.401 48.0938 128.555 48.2727 127.589 48.2727ZM135.677 48V34.9091H137.688V48H135.677ZM136.7 32.7273C136.308 32.7273 135.969 32.5938 135.685 32.3267C135.407 32.0597 135.268 31.7386 135.268 31.3636C135.268 30.9886 135.407 30.6676 135.685 30.4006C135.969 30.1335 136.308 30 136.7 30C137.092 30 137.427 30.1335 137.705 30.4006C137.989 30.6676 138.131 30.9886 138.131 31.3636C138.131 31.7386 137.989 32.0597 137.705 32.3267C137.427 32.5938 137.092 32.7273 136.7 32.7273ZM145.224 48.3068C144.395 48.3068 143.642 48.1506 142.966 47.8381C142.29 47.5199 141.753 47.0625 141.355 46.4659C140.957 45.8636 140.759 45.1364 140.759 44.2841C140.759 43.5341 140.906 42.9261 141.202 42.4602C141.497 41.9886 141.892 41.6193 142.386 41.3523C142.881 41.0852 143.426 40.8864 144.023 40.7557C144.625 40.6193 145.23 40.5114 145.838 40.4318C146.634 40.3295 147.278 40.2528 147.773 40.2017C148.273 40.1449 148.636 40.0511 148.864 39.9205C149.097 39.7898 149.213 39.5625 149.213 39.2386V39.1705C149.213 38.3295 148.983 37.6761 148.523 37.2102C148.068 36.7443 147.378 36.5114 146.452 36.5114C145.491 36.5114 144.739 36.7216 144.193 37.142C143.648 37.5625 143.264 38.0114 143.043 38.4886L141.134 37.8068C141.474 37.0114 141.929 36.392 142.497 35.9489C143.071 35.5 143.696 35.1875 144.372 35.0114C145.054 34.8295 145.724 34.7386 146.384 34.7386C146.804 34.7386 147.287 34.7898 147.832 34.892C148.384 34.9886 148.915 35.1903 149.426 35.4972C149.943 35.804 150.372 36.267 150.713 36.8864C151.054 37.5057 151.224 38.3352 151.224 39.375V48H149.213V46.2273H149.111C148.974 46.5114 148.747 46.8153 148.429 47.1392C148.111 47.4631 147.688 47.7386 147.159 47.9659C146.631 48.1932 145.986 48.3068 145.224 48.3068ZM145.531 46.5C146.327 46.5 146.997 46.3438 147.543 46.0312C148.094 45.7188 148.509 45.3153 148.787 44.821C149.071 44.3267 149.213 43.8068 149.213 43.2614V41.4205C149.128 41.5227 148.94 41.6165 148.651 41.7017C148.366 41.7812 148.037 41.8523 147.662 41.9148C147.293 41.9716 146.932 42.0227 146.58 42.0682C146.233 42.108 145.952 42.142 145.736 42.1705C145.213 42.2386 144.724 42.3494 144.27 42.5028C143.821 42.6506 143.457 42.875 143.179 43.1761C142.906 43.4716 142.77 43.875 142.77 44.3864C142.77 45.0852 143.028 45.6136 143.545 45.9716C144.068 46.3239 144.73 46.5 145.531 46.5ZM154.896 48V34.9091H156.839V36.8864H156.975C157.214 36.2386 157.646 35.7131 158.271 35.3097C158.896 34.9062 159.6 34.7045 160.384 34.7045C160.532 34.7045 160.717 34.7074 160.938 34.7131C161.16 34.7187 161.327 34.7273 161.441 34.7386V36.7841C161.373 36.767 161.217 36.7415 160.972 36.7074C160.734 36.6676 160.481 36.6477 160.214 36.6477C159.577 36.6477 159.009 36.7812 158.509 37.0483C158.015 37.3097 157.623 37.6733 157.333 38.1392C157.049 38.5994 156.907 39.125 156.907 39.7159V48H154.896ZM179.848 37.8409L178.041 38.3523C177.928 38.0511 177.76 37.7585 177.538 37.4744C177.322 37.1847 177.027 36.946 176.652 36.7585C176.277 36.571 175.797 36.4773 175.212 36.4773C174.411 36.4773 173.743 36.6619 173.209 37.0312C172.68 37.3949 172.416 37.858 172.416 38.4205C172.416 38.9205 172.598 39.3153 172.962 39.6051C173.325 39.8949 173.893 40.1364 174.666 40.3295L176.609 40.8068C177.78 41.0909 178.652 41.5256 179.226 42.1108C179.8 42.6903 180.087 43.4375 180.087 44.3523C180.087 45.1023 179.871 45.7727 179.439 46.3636C179.013 46.9545 178.416 47.4205 177.649 47.7614C176.882 48.1023 175.99 48.2727 174.973 48.2727C173.638 48.2727 172.533 47.983 171.658 47.4034C170.783 46.8239 170.229 45.9773 169.996 44.8636L171.905 44.3864C172.087 45.0909 172.43 45.6193 172.936 45.9716C173.447 46.3239 174.115 46.5 174.939 46.5C175.876 46.5 176.621 46.3011 177.172 45.9034C177.729 45.5 178.007 45.017 178.007 44.4545C178.007 44 177.848 43.6193 177.53 43.3125C177.212 43 176.723 42.767 176.064 42.6136L173.882 42.1023C172.683 41.8182 171.803 41.3778 171.24 40.7812C170.683 40.179 170.405 39.4261 170.405 38.5227C170.405 37.7841 170.612 37.1307 171.027 36.5625C171.447 35.9943 172.018 35.5483 172.74 35.2244C173.467 34.9006 174.291 34.7386 175.212 34.7386C176.507 34.7386 177.524 35.0227 178.263 35.5909C179.007 36.1591 179.536 36.9091 179.848 37.8409ZM188.603 48.2727C187.342 48.2727 186.254 47.9943 185.339 47.4375C184.43 46.875 183.728 46.0909 183.234 45.0852C182.745 44.0739 182.501 42.8977 182.501 41.5568C182.501 40.2159 182.745 39.0341 183.234 38.0114C183.728 36.983 184.415 36.1818 185.296 35.608C186.183 35.0284 187.217 34.7386 188.398 34.7386C189.08 34.7386 189.754 34.8523 190.418 35.0795C191.083 35.3068 191.688 35.6761 192.234 36.1875C192.779 36.6932 193.214 37.3636 193.538 38.1989C193.862 39.0341 194.023 40.0625 194.023 41.2841V42.1364H183.933V40.3977H191.978C191.978 39.6591 191.83 39 191.535 38.4205C191.245 37.8409 190.83 37.3835 190.29 37.0483C189.756 36.7131 189.126 36.5455 188.398 36.5455C187.597 36.5455 186.904 36.7443 186.319 37.142C185.739 37.5341 185.293 38.0455 184.981 38.6761C184.668 39.3068 184.512 39.983 184.512 40.7045V41.8636C184.512 42.8523 184.683 43.6903 185.023 44.3778C185.37 45.0597 185.85 45.5795 186.464 45.9375C187.077 46.2898 187.79 46.4659 188.603 46.4659C189.131 46.4659 189.609 46.392 190.035 46.2443C190.467 46.0909 190.839 45.8636 191.151 45.5625C191.464 45.2557 191.705 44.875 191.876 44.4205L193.819 44.9659C193.614 45.625 193.271 46.2045 192.788 46.7045C192.305 47.1989 191.708 47.5852 190.998 47.8636C190.288 48.1364 189.489 48.2727 188.603 48.2727ZM206.356 37.8409L204.549 38.3523C204.435 38.0511 204.268 37.7585 204.046 37.4744C203.83 37.1847 203.535 36.946 203.16 36.7585C202.785 36.571 202.305 36.4773 201.719 36.4773C200.918 36.4773 200.251 36.6619 199.717 37.0312C199.188 37.3949 198.924 37.858 198.924 38.4205C198.924 38.9205 199.106 39.3153 199.469 39.6051C199.833 39.8949 200.401 40.1364 201.174 40.3295L203.117 40.8068C204.288 41.0909 205.16 41.5256 205.734 42.1108C206.308 42.6903 206.594 43.4375 206.594 44.3523C206.594 45.1023 206.379 45.7727 205.947 46.3636C205.521 46.9545 204.924 47.4205 204.157 47.7614C203.39 48.1023 202.498 48.2727 201.481 48.2727C200.146 48.2727 199.04 47.983 198.165 47.4034C197.29 46.8239 196.737 45.9773 196.504 44.8636L198.413 44.3864C198.594 45.0909 198.938 45.6193 199.444 45.9716C199.955 46.3239 200.623 46.5 201.447 46.5C202.384 46.5 203.129 46.3011 203.68 45.9034C204.237 45.5 204.515 45.017 204.515 44.4545C204.515 44 204.356 43.6193 204.038 43.3125C203.719 43 203.231 42.767 202.572 42.6136L200.39 42.1023C199.191 41.8182 198.31 41.3778 197.748 40.7812C197.191 40.179 196.913 39.4261 196.913 38.5227C196.913 37.7841 197.12 37.1307 197.535 36.5625C197.955 35.9943 198.526 35.5483 199.248 35.2244C199.975 34.9006 200.799 34.7386 201.719 34.7386C203.015 34.7386 204.032 35.0227 204.771 35.5909C205.515 36.1591 206.043 36.9091 206.356 37.8409ZM209.622 48V34.9091H211.634V48H209.622ZM210.645 32.7273C210.253 32.7273 209.915 32.5938 209.631 32.3267C209.352 32.0597 209.213 31.7386 209.213 31.3636C209.213 30.9886 209.352 30.6676 209.631 30.4006C209.915 30.1335 210.253 30 210.645 30C211.037 30 211.372 30.1335 211.651 30.4006C211.935 30.6676 212.077 30.9886 212.077 31.3636C212.077 31.7386 211.935 32.0597 211.651 32.3267C211.372 32.5938 211.037 32.7273 210.645 32.7273ZM220.636 48.2727C219.454 48.2727 218.417 47.9915 217.525 47.429C216.638 46.8665 215.945 46.0795 215.445 45.0682C214.951 44.0568 214.704 42.875 214.704 41.5227C214.704 40.1591 214.951 38.9687 215.445 37.9517C215.945 36.9347 216.638 36.1449 217.525 35.5824C218.417 35.0199 219.454 34.7386 220.636 34.7386C221.817 34.7386 222.852 35.0199 223.738 35.5824C224.63 36.1449 225.323 36.9347 225.817 37.9517C226.317 38.9687 226.567 40.1591 226.567 41.5227C226.567 42.875 226.317 44.0568 225.817 45.0682C225.323 46.0795 224.63 46.8665 223.738 47.429C222.852 47.9915 221.817 48.2727 220.636 48.2727ZM220.636 46.4659C221.533 46.4659 222.272 46.2358 222.852 45.7756C223.431 45.3153 223.86 44.7102 224.138 43.9602C224.417 43.2102 224.556 42.3977 224.556 41.5227C224.556 40.6477 224.417 39.8324 224.138 39.0767C223.86 38.321 223.431 37.7102 222.852 37.2443C222.272 36.7784 221.533 36.5455 220.636 36.5455C219.738 36.5455 218.999 36.7784 218.42 37.2443C217.84 37.7102 217.411 38.321 217.133 39.0767C216.854 39.8324 216.715 40.6477 216.715 41.5227C216.715 42.3977 216.854 43.2102 217.133 43.9602C217.411 44.7102 217.84 45.3153 218.42 45.7756C218.999 46.2358 219.738 46.4659 220.636 46.4659ZM231.649 40.125V48H229.638V34.9091H231.581V36.9545H231.751C232.058 36.2898 232.524 35.7557 233.149 35.3523C233.774 34.9432 234.581 34.7386 235.57 34.7386C236.456 34.7386 237.232 34.9205 237.896 35.2841C238.561 35.642 239.078 36.1875 239.447 36.9205C239.817 37.6477 240.001 38.5682 240.001 39.6818V48H237.99V39.8182C237.99 38.7898 237.723 37.9886 237.189 37.4148C236.655 36.8352 235.922 36.5455 234.99 36.5455C234.348 36.5455 233.774 36.6847 233.268 36.9631C232.768 37.2415 232.374 37.6477 232.084 38.1818C231.794 38.7159 231.649 39.3636 231.649 40.125Z" fill="#FAFAFA"/>
</g>
<defs>
<filter id="filter0_d_136_24" x="0" y="0" width="337" height="87" filterUnits="userSpaceOnUse" color-interpolation-filters="sRGB">
<feFlood flood-opacity="0" result="BackgroundImageFix"/>
<feColorMatrix in="SourceAlpha" type="matrix" values="0 0 0 0 0 0 0 0 0 0 0 0 0 0 0 0 0 0 127 0" result="hardAlpha"/>
<feMorphology radius="4" operator="dilate" in="SourceAlpha" result="effect1_dropShadow_136_24"/>
<feOffset dy="4"/>
<feGaussianBlur stdDeviation="6"/>
<feComposite in2="hardAlpha" operator="out"/>
<feColorMatrix type="matrix" values="0 0 0 0 0.67451 0 0 0 0 0.498039 0 0 0 0 0.784314 0 0 0 0.25 0"/>
<feBlend mode="normal" in2="BackgroundImageFix" result="effect1_dropShadow_136_24"/>
<feBlend mode="normal" in="SourceGraphic" in2="effect1_dropShadow_136_24" result="shape"/>
</filter>
</defs>
</svg>
